<?xml version="1.0" encoding="UTF-8" standalone="no"?>
<!DOCTYPE svg PUBLIC "-//W3C//DTD SVG 1.1//EN" "http://www.w3.org/Graphics/SVG/1.1/DTD/svg11.dtd">
<svg width="100%" height="100%" viewBox="0 0 159 40" version="1.1" xmlns="http://www.w3.org/2000/svg" xmlns:xlink="http://www.w3.org/1999/xlink" xml:space="preserve" xmlns:serif="http://www.serif.com/" style="fill-rule:evenodd;clip-rule:evenodd;stroke-linejoin:round;stroke-miterlimit:2;">
    <g id="Artboard1" transform="matrix(0.505308,0,0,0.585784,-204.427,0)">
        <rect x="404.559" y="0" width="314" height="68" style="fill:none;"/>
        <g transform="matrix(1,0,0,1,1.14303,1.99163)">
            <g transform="matrix(1.97899,0,0,1.70711,347.842,-20.2977)">
                <path d="M87.374,37.401L91.598,17.413L97.026,17.413L92.802,37.401L87.374,37.401ZM78.567,17.023C80.937,17.023 82.778,17.702 84.09,19.06C85.412,20.409 86.073,22.296 86.073,24.721C86.073,27.145 85.617,29.365 84.705,31.379C83.803,33.384 82.554,34.924 80.959,36C79.364,37.066 77.514,37.6 75.409,37.6C72.957,37.6 71.061,36.921 69.721,35.563C68.39,34.204 67.725,32.318 67.725,29.902C67.725,27.487 68.194,25.268 69.133,23.244C70.072,21.221 71.348,19.68 72.961,18.623C74.584,17.557 76.452,17.023 78.567,17.023ZM80.672,24.775C80.672,23.736 80.453,22.925 80.016,22.342C79.578,21.749 78.945,21.453 78.116,21.453C77.213,21.453 76.384,21.836 75.627,22.602C74.871,23.367 74.265,24.42 73.809,25.76C73.362,27.1 73.139,28.471 73.139,29.875C73.139,32.081 74.05,33.184 75.873,33.184C76.739,33.184 77.541,32.805 78.28,32.049C79.027,31.292 79.61,30.271 80.03,28.986C80.458,27.701 80.672,26.297 80.672,24.775ZM97.199,37.401L101.423,17.413L106.769,17.413L103.474,33.04L109.996,33.04L109.066,37.401L97.199,37.401Z" style="fill:rgb(255,201,37);fill-rule:nonzero;"/>
            </g>
            <g transform="matrix(1.97899,0,0,1.70711,347.842,-20.2977)">
                <path d="M121.789,18.972C120.832,18.972 120.09,19.245 119.561,19.792C119.032,20.339 118.768,21.114 118.768,22.116C118.768,23.21 119.142,24.281 119.889,25.329C121.156,24.682 122.026,24.181 122.5,23.825C122.974,23.47 123.353,23.082 123.635,22.663C123.918,22.244 124.059,21.77 124.059,21.241C124.059,20.539 123.863,19.988 123.471,19.587C123.088,19.177 122.528,18.972 121.789,18.972ZM118.153,35.774C118.946,35.774 119.711,35.624 120.45,35.323C121.188,35.023 122.077,34.457 123.116,33.628L118.932,27.708C117.765,28.319 116.927,28.847 116.416,29.294C115.906,29.741 115.514,30.233 115.241,30.77C114.976,31.299 114.844,31.896 114.844,32.562C114.844,33.528 115.145,34.307 115.746,34.899C116.357,35.483 117.159,35.774 118.153,35.774ZM112.616,32.726C112.616,31.377 113.026,30.205 113.846,29.212C114.666,28.209 116.047,27.243 117.989,26.314C117.05,24.81 116.58,23.401 116.58,22.089C116.58,20.594 117.064,19.391 118.03,18.48C118.996,17.559 120.276,17.099 121.871,17.099C123.23,17.099 124.305,17.459 125.098,18.179C125.9,18.899 126.301,19.865 126.301,21.077C126.301,21.788 126.151,22.412 125.85,22.95C125.558,23.488 125.162,23.98 124.661,24.427C124.159,24.873 123.576,25.284 122.911,25.657C122.254,26.031 121.557,26.409 120.819,26.792L124.62,32.11C125.777,31.108 126.684,29.763 127.34,28.077L129.637,28.077C128.717,30.228 127.427,32.106 125.768,33.71L128.543,37.401L125.795,37.401L124.196,35.132C123.102,36.043 122.054,36.695 121.051,37.087C120.049,37.479 118.923,37.675 117.674,37.675C116.143,37.675 114.917,37.237 113.996,36.362C113.076,35.487 112.616,34.275 112.616,32.726Z" style="fill:white;fill-rule:nonzero;"/>
            </g>
            <g transform="matrix(1.97899,0,0,1.70711,347.842,-20.2977)">
                <path d="M140.665,25.698L149.005,25.698L146.722,36.567C144.443,37.306 142.069,37.675 139.599,37.675C137.22,37.675 135.374,36.982 134.062,35.597C132.749,34.211 132.093,32.247 132.093,29.704C132.093,27.27 132.594,25.074 133.597,23.114C134.599,21.155 135.971,19.664 137.712,18.644C139.462,17.614 141.495,17.099 143.81,17.099C146.234,17.099 148.276,17.586 149.935,18.562L147.925,22.786C146.53,21.966 145.136,21.556 143.741,21.556C142.538,21.556 141.472,21.888 140.542,22.554C139.622,23.21 138.883,24.185 138.327,25.48C137.78,26.774 137.507,28.155 137.507,29.622C137.507,32.028 138.46,33.231 140.364,33.231C140.939,33.231 141.545,33.168 142.183,33.04L142.88,29.868L139.749,29.868L140.665,25.698ZM162.152,33.655L156.027,33.655L154.318,37.401L148.768,37.401L158.939,17.413L165.816,17.413L167.498,37.401L162.289,37.401L162.152,33.655ZM157.982,29.39L161.988,29.39L161.756,23.593L161.729,22.417C161.729,21.733 161.747,21.136 161.783,20.626C161.564,21.41 161.286,22.166 160.949,22.895L157.982,29.39ZM182.901,31.263C182.901,33.286 182.231,34.863 180.891,35.993C179.552,37.114 177.683,37.675 175.286,37.675C174.283,37.675 173.335,37.565 172.442,37.347C171.549,37.119 170.779,36.791 170.132,36.362L170.132,31.577C170.897,32.06 171.772,32.466 172.757,32.794C173.75,33.122 174.648,33.286 175.45,33.286C176.124,33.286 176.635,33.145 176.981,32.862C177.328,32.58 177.501,32.179 177.501,31.659C177.501,31.413 177.446,31.185 177.337,30.976C177.227,30.757 177.072,30.543 176.872,30.333C176.671,30.114 176.134,29.64 175.259,28.911C174.192,28.054 173.417,27.179 172.934,26.286C172.451,25.393 172.21,24.413 172.21,23.347C172.21,22.153 172.506,21.082 173.098,20.134C173.7,19.177 174.543,18.439 175.628,17.919C176.721,17.39 177.943,17.126 179.292,17.126C181.47,17.126 183.43,17.614 185.171,18.589L183.325,22.649C181.766,21.847 180.44,21.446 179.346,21.446C178.763,21.446 178.312,21.574 177.993,21.829C177.683,22.084 177.528,22.458 177.528,22.95C177.528,23.397 177.679,23.816 177.979,24.208C178.289,24.591 178.873,25.106 179.729,25.753C180.805,26.546 181.602,27.38 182.122,28.255C182.641,29.13 182.901,30.133 182.901,31.263Z" style="fill:rgb(39,150,237);fill-rule:nonzero;"/>
            </g>
            <g transform="matrix(1.97899,0,0,1.70711,347.842,-20.2977)">
                <path d="M80.789,40.823C80.789,40.646 80.84,40.503 80.941,40.394C81.043,40.284 81.186,40.23 81.371,40.23C81.509,40.23 81.621,40.265 81.707,40.335C81.793,40.403 81.836,40.507 81.836,40.648C81.836,40.832 81.784,40.978 81.68,41.085C81.576,41.192 81.439,41.245 81.269,41.245C81.132,41.245 81.017,41.211 80.926,41.144C80.835,41.076 80.789,40.969 80.789,40.823ZM80.606,46.206L79.684,46.206L80.606,41.886L81.523,41.886L80.606,46.206ZM84.645,46.206L85.2,43.581C85.247,43.347 85.27,43.176 85.27,43.069C85.27,42.728 85.102,42.558 84.766,42.558C84.579,42.558 84.394,42.632 84.212,42.78C84.029,42.929 83.865,43.144 83.72,43.425C83.574,43.704 83.464,44.02 83.391,44.374L83.009,46.206L82.087,46.206L83.009,41.886L83.727,41.886L83.645,42.687L83.681,42.687C83.897,42.379 84.119,42.157 84.348,42.019C84.578,41.878 84.826,41.808 85.095,41.808C85.444,41.808 85.713,41.907 85.903,42.105C86.096,42.302 86.192,42.584 86.192,42.948C86.192,43.128 86.162,43.364 86.102,43.655L85.567,46.206L84.645,46.206ZM89.564,46.206L90.119,43.581C90.166,43.347 90.189,43.176 90.189,43.069C90.189,42.728 90.021,42.558 89.685,42.558C89.498,42.558 89.313,42.632 89.131,42.78C88.948,42.929 88.784,43.144 88.638,43.425C88.492,43.704 88.383,44.02 88.31,44.374L87.927,46.206L87.006,46.206L87.927,41.886L88.646,41.886L88.564,42.687L88.599,42.687C88.815,42.379 89.038,42.157 89.267,42.019C89.496,41.878 89.745,41.808 90.013,41.808C90.362,41.808 90.632,41.907 90.822,42.105C91.015,42.302 91.111,42.584 91.111,42.948C91.111,43.128 91.081,43.364 91.021,43.655L90.486,46.206L89.564,46.206ZM95.03,43.464C95.03,43.185 94.966,42.968 94.838,42.812C94.711,42.653 94.528,42.573 94.291,42.573C94.049,42.573 93.832,42.667 93.639,42.855C93.449,43.039 93.301,43.292 93.194,43.612C93.09,43.93 93.037,44.27 93.037,44.632C93.037,44.921 93.101,45.142 93.229,45.296C93.359,45.45 93.551,45.526 93.803,45.526C94.037,45.526 94.248,45.438 94.436,45.261C94.623,45.084 94.769,44.836 94.873,44.519C94.978,44.198 95.03,43.847 95.03,43.464ZM95.956,43.503C95.956,44.029 95.86,44.508 95.67,44.94C95.48,45.37 95.219,45.701 94.885,45.933C94.554,46.162 94.173,46.276 93.741,46.276C93.241,46.276 92.844,46.128 92.549,45.831C92.255,45.532 92.108,45.125 92.108,44.612C92.108,44.094 92.2,43.619 92.385,43.187C92.573,42.754 92.834,42.418 93.17,42.179C93.506,41.937 93.894,41.815 94.334,41.815C94.842,41.815 95.239,41.967 95.526,42.269C95.812,42.571 95.956,42.982 95.956,43.503ZM97.429,46.206L96.917,41.886L97.823,41.886L98.038,44.222C98.075,44.636 98.093,45.023 98.093,45.382L98.12,45.382C98.193,45.189 98.284,44.974 98.394,44.737C98.503,44.5 98.588,44.329 98.648,44.222L99.863,41.886L100.839,41.886L98.503,46.206L97.429,46.206ZM102.184,46.284C101.816,46.284 101.526,46.153 101.312,45.89C101.099,45.624 100.992,45.252 100.992,44.773C100.992,44.246 101.082,43.754 101.262,43.296C101.444,42.838 101.694,42.476 102.012,42.21C102.329,41.942 102.678,41.808 103.059,41.808C103.311,41.808 103.529,41.868 103.711,41.987C103.893,42.105 104.035,42.276 104.137,42.503L104.176,42.503L104.418,41.886L105.121,41.886L104.199,46.206L103.488,46.206L103.57,45.519L103.547,45.519C103.135,46.029 102.681,46.284 102.184,46.284ZM102.52,45.542C102.733,45.542 102.943,45.442 103.148,45.241C103.354,45.038 103.523,44.767 103.656,44.429C103.789,44.09 103.855,43.72 103.855,43.319C103.855,43.09 103.794,42.907 103.672,42.769C103.549,42.628 103.389,42.558 103.191,42.558C102.97,42.558 102.762,42.658 102.566,42.858C102.371,43.059 102.215,43.332 102.098,43.679C101.98,44.023 101.922,44.379 101.922,44.749C101.922,45.015 101.974,45.214 102.078,45.347C102.185,45.477 102.332,45.542 102.52,45.542ZM107.235,45.542C107.412,45.542 107.609,45.502 107.825,45.421L107.825,46.116C107.734,46.161 107.61,46.2 107.454,46.233C107.298,46.267 107.141,46.284 106.985,46.284C106.272,46.284 105.915,45.963 105.915,45.319C105.915,45.171 105.936,45 105.977,44.808L106.45,42.581L105.817,42.581L105.899,42.151L106.641,41.831L107.145,40.925L107.716,40.925L107.513,41.886L108.602,41.886L108.45,42.581L107.368,42.581L106.891,44.815C106.858,44.959 106.841,45.079 106.841,45.175C106.841,45.287 106.873,45.377 106.938,45.444C107.003,45.509 107.102,45.542 107.235,45.542ZM109.884,40.823C109.884,40.646 109.935,40.503 110.037,40.394C110.138,40.284 110.282,40.23 110.466,40.23C110.604,40.23 110.716,40.265 110.802,40.335C110.888,40.403 110.931,40.507 110.931,40.648C110.931,40.832 110.879,40.978 110.775,41.085C110.671,41.192 110.534,41.245 110.365,41.245C110.227,41.245 110.112,41.211 110.021,41.144C109.93,41.076 109.884,40.969 109.884,40.823ZM109.701,46.206L108.779,46.206L109.701,41.886L110.619,41.886L109.701,46.206ZM111.901,46.206L111.389,41.886L112.295,41.886L112.51,44.222C112.547,44.636 112.565,45.023 112.565,45.382L112.592,45.382C112.665,45.189 112.756,44.974 112.866,44.737C112.975,44.5 113.06,44.329 113.12,44.222L114.334,41.886L115.311,41.886L112.975,46.206L111.901,46.206ZM117.691,42.511C117.441,42.511 117.205,42.623 116.984,42.847C116.765,43.071 116.607,43.366 116.511,43.733L116.624,43.733C117.114,43.733 117.497,43.664 117.773,43.526C118.049,43.386 118.187,43.188 118.187,42.933C118.187,42.8 118.145,42.697 118.062,42.624C117.978,42.548 117.855,42.511 117.691,42.511ZM117.097,46.284C116.584,46.284 116.183,46.14 115.894,45.851C115.607,45.562 115.464,45.158 115.464,44.64C115.464,44.124 115.564,43.645 115.765,43.202C115.968,42.757 116.241,42.413 116.585,42.171C116.932,41.929 117.318,41.808 117.745,41.808C118.165,41.808 118.49,41.903 118.722,42.093C118.956,42.28 119.073,42.547 119.073,42.894C119.073,43.368 118.856,43.739 118.421,44.007C117.989,44.273 117.372,44.405 116.57,44.405L116.402,44.405L116.394,44.526L116.394,44.64C116.394,44.929 116.467,45.155 116.612,45.319C116.761,45.483 116.981,45.565 117.273,45.565C117.46,45.565 117.646,45.541 117.831,45.491C118.016,45.442 118.235,45.357 118.487,45.237L118.487,45.968C118.237,46.082 118.007,46.163 117.796,46.21C117.588,46.259 117.355,46.284 117.097,46.284ZM123.067,40.823C123.067,40.646 123.118,40.503 123.22,40.394C123.321,40.284 123.464,40.23 123.649,40.23C123.787,40.23 123.899,40.265 123.985,40.335C124.071,40.403 124.114,40.507 124.114,40.648C124.114,40.832 124.062,40.978 123.958,41.085C123.854,41.192 123.717,41.245 123.548,41.245C123.41,41.245 123.295,41.211 123.204,41.144C123.113,41.076 123.067,40.969 123.067,40.823ZM122.884,46.206L121.962,46.206L122.884,41.886L123.802,41.886L122.884,46.206ZM126.923,46.206L127.478,43.581C127.525,43.347 127.548,43.176 127.548,43.069C127.548,42.728 127.38,42.558 127.045,42.558C126.857,42.558 126.672,42.632 126.49,42.78C126.308,42.929 126.143,43.144 125.998,43.425C125.852,43.704 125.742,44.02 125.67,44.374L125.287,46.206L124.365,46.206L125.287,41.886L126.005,41.886L125.923,42.687L125.959,42.687C126.175,42.379 126.397,42.157 126.627,42.019C126.856,41.878 127.104,41.808 127.373,41.808C127.722,41.808 127.991,41.907 128.181,42.105C128.374,42.302 128.47,42.584 128.47,42.948C128.47,43.128 128.44,43.364 128.38,43.655L127.845,46.206L126.923,46.206ZM130.877,45.542C131.054,45.542 131.251,45.502 131.467,45.421L131.467,46.116C131.376,46.161 131.252,46.2 131.096,46.233C130.94,46.267 130.784,46.284 130.627,46.284C129.914,46.284 129.557,45.963 129.557,45.319C129.557,45.171 129.578,45 129.62,44.808L130.092,42.581L129.459,42.581L129.541,42.151L130.284,41.831L130.787,40.925L131.358,40.925L131.155,41.886L132.245,41.886L132.092,42.581L131.01,42.581L130.534,44.815C130.5,44.959 130.483,45.079 130.483,45.175C130.483,45.287 130.515,45.377 130.58,45.444C130.646,45.509 130.745,45.542 130.877,45.542ZM134.831,42.511C134.581,42.511 134.346,42.623 134.124,42.847C133.905,43.071 133.748,43.366 133.652,43.733L133.765,43.733C134.254,43.733 134.637,43.664 134.913,43.526C135.189,43.386 135.327,43.188 135.327,42.933C135.327,42.8 135.286,42.697 135.202,42.624C135.119,42.548 134.995,42.511 134.831,42.511ZM134.237,46.284C133.724,46.284 133.323,46.14 133.034,45.851C132.748,45.562 132.605,45.158 132.605,44.64C132.605,44.124 132.705,43.645 132.905,43.202C133.109,42.757 133.382,42.413 133.726,42.171C134.072,41.929 134.459,41.808 134.886,41.808C135.305,41.808 135.631,41.903 135.862,42.093C136.097,42.28 136.214,42.547 136.214,42.894C136.214,43.368 135.997,43.739 135.562,44.007C135.129,44.273 134.512,44.405 133.71,44.405L133.542,44.405L133.534,44.526L133.534,44.64C133.534,44.929 133.607,45.155 133.753,45.319C133.902,45.483 134.122,45.565 134.413,45.565C134.601,45.565 134.787,45.541 134.972,45.491C135.157,45.442 135.376,45.357 135.628,45.237L135.628,45.968C135.378,46.082 135.148,46.163 134.937,46.21C134.728,46.259 134.495,46.284 134.237,46.284ZM141.105,41.886L140.984,42.421L140.234,42.55C140.307,42.701 140.344,42.879 140.344,43.085C140.344,43.588 140.189,43.987 139.879,44.284C139.569,44.579 139.154,44.726 138.633,44.726C138.497,44.726 138.378,44.715 138.273,44.694C137.984,44.798 137.84,44.934 137.84,45.101C137.84,45.2 137.88,45.267 137.961,45.304C138.044,45.34 138.164,45.369 138.32,45.39L138.816,45.452C139.275,45.509 139.603,45.624 139.801,45.796C139.999,45.965 140.098,46.209 140.098,46.526C140.098,47.037 139.901,47.431 139.508,47.71C139.115,47.989 138.556,48.128 137.832,48.128C137.303,48.128 136.895,48.03 136.605,47.835C136.314,47.64 136.168,47.371 136.168,47.03C136.168,46.762 136.259,46.53 136.441,46.335C136.621,46.14 136.911,45.974 137.312,45.839C137.115,45.722 137.016,45.556 137.016,45.343C137.016,45.163 137.076,45.008 137.195,44.878C137.318,44.745 137.509,44.618 137.77,44.495C137.418,44.284 137.242,43.956 137.242,43.511C137.242,43 137.401,42.589 137.719,42.276C138.039,41.964 138.461,41.808 138.984,41.808C139.193,41.808 139.401,41.834 139.609,41.886L141.105,41.886ZM137.906,46.136C137.615,46.183 137.391,46.275 137.234,46.413C137.078,46.551 137,46.722 137,46.925C137,47.094 137.072,47.228 137.215,47.327C137.361,47.429 137.582,47.48 137.879,47.48C138.303,47.48 138.635,47.409 138.875,47.269C139.115,47.128 139.234,46.926 139.234,46.663C139.234,46.53 139.176,46.426 139.059,46.351C138.941,46.275 138.736,46.222 138.441,46.19L137.906,46.136ZM138.961,42.421C138.792,42.421 138.643,42.472 138.516,42.573C138.388,42.672 138.289,42.809 138.219,42.983C138.148,43.155 138.113,43.344 138.113,43.55C138.113,43.735 138.159,43.878 138.25,43.98C138.344,44.079 138.477,44.128 138.648,44.128C138.818,44.128 138.964,44.077 139.086,43.976C139.211,43.874 139.307,43.735 139.375,43.558C139.445,43.381 139.48,43.187 139.48,42.976C139.48,42.606 139.307,42.421 138.961,42.421ZM144.126,41.808C144.287,41.808 144.428,41.823 144.548,41.855L144.348,42.71C144.208,42.673 144.075,42.655 143.95,42.655C143.622,42.655 143.329,42.802 143.071,43.097C142.813,43.391 142.634,43.776 142.532,44.253L142.118,46.206L141.196,46.206L142.118,41.886L142.837,41.886L142.755,42.687L142.79,42.687C143.006,42.374 143.222,42.15 143.438,42.015C143.654,41.877 143.884,41.808 144.126,41.808ZM145.767,40.823C145.767,40.646 145.818,40.503 145.92,40.394C146.021,40.284 146.164,40.23 146.349,40.23C146.487,40.23 146.599,40.265 146.685,40.335C146.771,40.403 146.814,40.507 146.814,40.648C146.814,40.832 146.762,40.978 146.658,41.085C146.554,41.192 146.417,41.245 146.248,41.245C146.11,41.245 145.995,41.211 145.904,41.144C145.813,41.076 145.767,40.969 145.767,40.823ZM145.584,46.206L144.662,46.206L145.584,41.886L146.502,41.886L145.584,46.206ZM148.659,45.542C148.836,45.542 149.032,45.502 149.248,45.421L149.248,46.116C149.157,46.161 149.034,46.2 148.877,46.233C148.721,46.267 148.565,46.284 148.409,46.284C147.695,46.284 147.338,45.963 147.338,45.319C147.338,45.171 147.359,45 147.401,44.808L147.873,42.581L147.241,42.581L147.323,42.151L148.065,41.831L148.569,40.925L149.139,40.925L148.936,41.886L150.026,41.886L149.873,42.581L148.791,42.581L148.315,44.815C148.281,44.959 148.264,45.079 148.264,45.175C148.264,45.287 148.297,45.377 148.362,45.444C148.427,45.509 148.526,45.542 148.659,45.542ZM150.409,41.886L151.316,41.886L151.562,43.96C151.585,44.121 151.606,44.349 151.624,44.644C151.642,44.935 151.652,45.171 151.652,45.351L151.675,45.351C151.899,44.791 152.075,44.383 152.202,44.128L153.347,41.886L154.339,41.886L151.652,46.886C151.417,47.315 151.162,47.629 150.886,47.827C150.61,48.028 150.286,48.128 149.913,48.128C149.715,48.128 149.529,48.103 149.355,48.054L149.355,47.319C149.55,47.361 149.713,47.382 149.843,47.382C150.036,47.382 150.21,47.325 150.366,47.21C150.523,47.098 150.684,46.896 150.851,46.605L151.05,46.245L150.409,41.886ZM159.473,44.878C159.473,45.329 159.32,45.676 159.012,45.921C158.705,46.163 158.278,46.284 157.731,46.284C157.236,46.284 156.817,46.197 156.473,46.023L156.473,45.23C156.872,45.464 157.278,45.581 157.692,45.581C157.945,45.581 158.149,45.529 158.305,45.425C158.462,45.321 158.54,45.179 158.54,44.999C158.54,44.866 158.494,44.753 158.403,44.659C158.315,44.563 158.131,44.435 157.852,44.276C157.527,44.102 157.296,43.925 157.161,43.745C157.028,43.563 156.962,43.348 156.962,43.101C156.962,42.697 157.101,42.381 157.38,42.151C157.658,41.922 158.035,41.808 158.509,41.808C159.019,41.808 159.47,41.917 159.86,42.136L159.563,42.823C159.199,42.625 158.852,42.526 158.524,42.526C158.334,42.526 158.179,42.569 158.059,42.655C157.942,42.741 157.884,42.861 157.884,43.015C157.884,43.132 157.927,43.236 158.012,43.327C158.098,43.418 158.274,43.536 158.54,43.679C158.813,43.832 159.007,43.964 159.122,44.073C159.236,44.183 159.324,44.302 159.384,44.433C159.443,44.56 159.473,44.709 159.473,44.878ZM160.611,41.886L161.517,41.886L161.763,43.96C161.787,44.121 161.808,44.349 161.826,44.644C161.844,44.935 161.853,45.171 161.853,45.351L161.877,45.351C162.101,44.791 162.276,44.383 162.404,44.128L163.548,41.886L164.541,41.886L161.853,46.886C161.619,47.315 161.364,47.629 161.088,47.827C160.811,48.028 160.487,48.128 160.115,48.128C159.917,48.128 159.731,48.103 159.556,48.054L159.556,47.319C159.752,47.361 159.914,47.382 160.045,47.382C160.237,47.382 160.412,47.325 160.568,47.21C160.724,47.098 160.886,46.896 161.052,46.605L161.252,46.245L160.611,41.886ZM167.397,44.878C167.397,45.329 167.243,45.676 166.936,45.921C166.629,46.163 166.202,46.284 165.655,46.284C165.16,46.284 164.741,46.197 164.397,46.023L164.397,45.23C164.795,45.464 165.202,45.581 165.616,45.581C165.868,45.581 166.073,45.529 166.229,45.425C166.385,45.321 166.463,45.179 166.463,44.999C166.463,44.866 166.418,44.753 166.327,44.659C166.238,44.563 166.054,44.435 165.776,44.276C165.45,44.102 165.22,43.925 165.084,43.745C164.952,43.563 164.885,43.348 164.885,43.101C164.885,42.697 165.024,42.381 165.303,42.151C165.582,41.922 165.958,41.808 166.432,41.808C166.942,41.808 167.393,41.917 167.784,42.136L167.487,42.823C167.122,42.625 166.776,42.526 166.448,42.526C166.258,42.526 166.103,42.569 165.983,42.655C165.866,42.741 165.807,42.861 165.807,43.015C165.807,43.132 165.85,43.236 165.936,43.327C166.022,43.418 166.198,43.536 166.463,43.679C166.737,43.832 166.931,43.964 167.045,44.073C167.16,44.183 167.247,44.302 167.307,44.433C167.367,44.56 167.397,44.709 167.397,44.878ZM169.921,45.542C170.098,45.542 170.295,45.502 170.511,45.421L170.511,46.116C170.42,46.161 170.296,46.2 170.14,46.233C169.984,46.267 169.827,46.284 169.671,46.284C168.958,46.284 168.601,45.963 168.601,45.319C168.601,45.171 168.622,45 168.663,44.808L169.136,42.581L168.503,42.581L168.585,42.151L169.327,41.831L169.831,40.925L170.402,40.925L170.198,41.886L171.288,41.886L171.136,42.581L170.054,42.581L169.577,44.815C169.543,44.959 169.527,45.079 169.527,45.175C169.527,45.287 169.559,45.377 169.624,45.444C169.689,45.509 169.788,45.542 169.921,45.542ZM173.875,42.511C173.625,42.511 173.389,42.623 173.168,42.847C172.949,43.071 172.792,43.366 172.695,43.733L172.809,43.733C173.298,43.733 173.681,43.664 173.957,43.526C174.233,43.386 174.371,43.188 174.371,42.933C174.371,42.8 174.329,42.697 174.246,42.624C174.163,42.548 174.039,42.511 173.875,42.511ZM173.281,46.284C172.768,46.284 172.367,46.14 172.078,45.851C171.792,45.562 171.648,45.158 171.648,44.64C171.648,44.124 171.749,43.645 171.949,43.202C172.152,42.757 172.426,42.413 172.77,42.171C173.116,41.929 173.503,41.808 173.93,41.808C174.349,41.808 174.674,41.903 174.906,42.093C175.141,42.28 175.258,42.547 175.258,42.894C175.258,43.368 175.04,43.739 174.605,44.007C174.173,44.273 173.556,44.405 172.754,44.405L172.586,44.405L172.578,44.526L172.578,44.64C172.578,44.929 172.651,45.155 172.797,45.319C172.945,45.483 173.165,45.565 173.457,45.565C173.645,45.565 173.831,45.541 174.016,45.491C174.201,45.442 174.419,45.357 174.672,45.237L174.672,45.968C174.422,46.082 174.191,46.163 173.98,46.21C173.772,46.259 173.539,46.284 173.281,46.284ZM178.837,41.808C179.41,41.808 179.74,42.114 179.829,42.726L179.86,42.726C180.055,42.423 180.277,42.196 180.524,42.042C180.774,41.886 181.033,41.808 181.302,41.808C181.648,41.808 181.911,41.908 182.091,42.108C182.273,42.306 182.364,42.586 182.364,42.948C182.364,43.115 182.335,43.351 182.278,43.655L181.731,46.206L180.813,46.206L181.372,43.581C181.421,43.334 181.446,43.161 181.446,43.062C181.446,42.726 181.289,42.558 180.973,42.558C180.692,42.558 180.429,42.719 180.184,43.042C179.942,43.365 179.765,43.793 179.653,44.327L179.259,46.206L178.341,46.206L178.899,43.581C178.943,43.368 178.966,43.202 178.966,43.085C178.966,42.733 178.813,42.558 178.509,42.558C178.222,42.558 177.957,42.723 177.712,43.054C177.47,43.384 177.29,43.825 177.173,44.374L176.79,46.206L175.868,46.206L176.79,41.886L177.509,41.886L177.427,42.687L177.462,42.687C177.847,42.101 178.305,41.808 178.837,41.808Z" style="fill:white;fill-rule:nonzero;"/>
            </g>
            <g transform="matrix(1.97899,0,0,1.70711,347.842,-20.2977)">
                <path d="M43,28.489C43.019,28.47 49.944,36.487 49.944,40.319C49.944,44.152 46.833,47.263 43,47.263C39.167,47.263 36.056,44.152 36.056,40.319C36.056,36.487 42.981,28.508 43,28.489Z" style="fill:rgb(39,150,237);"/>
            </g>
            <g transform="matrix(1.97899,0,0,1.70711,347.842,-20.2977)">
                <path d="M46.92,43.769C45.981,45.171 44.381,46.096 42.568,46.096C39.679,46.096 37.334,43.75 37.334,40.861C37.334,39.295 38.52,36.846 39.609,34.928C40.529,33.307 40.154,33.959 39.623,35.105C38.869,36.734 38.329,38.494 38.329,39.726C38.329,42.622 40.68,44.973 43.576,44.973C44.846,44.973 46.012,44.521 46.92,43.769Z" style="fill:white;"/>
            </g>
            <g transform="matrix(1.97899,0,0,1.70711,347.842,-20.2977)">
                <path d="M43,20.952C43,20.952 42.443,23.054 39.924,26.651C38.575,28.578 35.471,32.061 34.196,34.499C33.366,36.087 32.754,38.369 32.968,40.165C33.276,42.758 34.307,45.132 37.774,47.952C37.774,47.952 24.746,41.507 31.706,28.958C31.706,28.958 33.162,26.301 36.278,22.447C38.761,19.376 43,13.152 43,13.152C43,13.152 47.278,19.424 49.722,22.447C52.838,26.301 54.294,28.958 54.294,28.958C61.255,41.507 48.226,47.952 48.226,47.952C51.693,45.132 52.724,42.758 53.032,40.165C53.246,38.369 52.634,36.087 51.804,34.499C50.529,32.061 47.426,28.578 46.076,26.651C43.475,22.938 43,20.952 43,20.952Z" style="fill:rgb(255,201,37);"/>
            </g>
        </g>
    </g>
</svg>
