<svg width="179" height="178" viewBox="0 0 179 178" fill="none" xmlns="http://www.w3.org/2000/svg">
<circle cx="89.5" cy="89" r="89" fill="#333948"/>
<path d="M41.5137 112.697C43.8835 112.697 45.7246 113.376 47.0371 114.734C48.3587 116.083 49.0195 117.97 49.0195 120.395C49.0195 122.819 48.5638 125.038 47.6523 127.053C46.75 129.058 45.5013 130.598 43.9062 131.674C42.3112 132.74 40.4609 133.273 38.3555 133.273C35.9036 133.273 34.0078 132.594 32.668 131.236C31.3372 129.878 30.6719 127.992 30.6719 125.576C30.6719 123.161 31.1413 120.941 32.0801 118.918C33.0189 116.895 34.2949 115.354 35.9082 114.297C37.5306 113.23 39.3991 112.697 41.5137 112.697ZM43.6191 120.449C43.6191 119.41 43.4004 118.599 42.9629 118.016C42.5254 117.423 41.8919 117.127 41.0625 117.127C40.1602 117.127 39.3307 117.51 38.5742 118.275C37.8177 119.041 37.2116 120.094 36.7559 121.434C36.3092 122.773 36.0859 124.145 36.0859 125.549C36.0859 127.755 36.9974 128.857 38.8203 128.857C39.6862 128.857 40.4883 128.479 41.2266 127.723C41.974 126.966 42.5573 125.945 42.9766 124.66C43.4049 123.375 43.6191 121.971 43.6191 120.449ZM50.5184 133L54.743 113.012H60.1707L55.9461 133H50.5184ZM60.6988 133L64.9234 113.012H70.2691L66.9742 128.639H73.4957L72.566 133H60.6988Z" fill="#FFC925"/>
<path d="M85.2895 114.57C84.3324 114.57 83.5896 114.844 83.0609 115.391C82.5323 115.938 82.268 116.712 82.268 117.715C82.268 118.809 82.6417 119.88 83.3891 120.928C84.656 120.281 85.5264 119.779 86.0004 119.424C86.4743 119.068 86.8526 118.681 87.1352 118.262C87.4177 117.842 87.559 117.368 87.559 116.84C87.559 116.138 87.363 115.587 86.9711 115.186C86.5883 114.775 86.0277 114.57 85.2895 114.57ZM81.6527 131.373C82.4457 131.373 83.2113 131.223 83.9496 130.922C84.6879 130.621 85.5766 130.056 86.6156 129.227L82.432 123.307C81.2654 123.917 80.4268 124.446 79.9164 124.893C79.406 125.339 79.0141 125.831 78.7406 126.369C78.4763 126.898 78.3441 127.495 78.3441 128.16C78.3441 129.126 78.6449 129.906 79.2465 130.498C79.8572 131.081 80.6592 131.373 81.6527 131.373ZM76.1156 128.324C76.1156 126.975 76.5258 125.804 77.3461 124.811C78.1664 123.808 79.5473 122.842 81.4887 121.912C80.5499 120.408 80.0805 119 80.0805 117.688C80.0805 116.193 80.5635 114.99 81.5297 114.078C82.4958 113.158 83.7764 112.697 85.3715 112.697C86.7296 112.697 87.8051 113.057 88.598 113.777C89.4001 114.497 89.8012 115.464 89.8012 116.676C89.8012 117.387 89.6508 118.011 89.35 118.549C89.0583 119.087 88.6618 119.579 88.1605 120.025C87.6592 120.472 87.0759 120.882 86.4105 121.256C85.7543 121.63 85.057 122.008 84.3187 122.391L88.1195 127.709C89.2771 126.706 90.184 125.362 90.8402 123.676H93.1371C92.2165 125.827 90.9268 127.704 89.268 129.309L92.0434 133H89.2953L87.6957 130.73C86.602 131.642 85.5538 132.294 84.5512 132.686C83.5486 133.077 82.4229 133.273 81.1742 133.273C79.643 133.273 78.4171 132.836 77.4965 131.961C76.5759 131.086 76.1156 129.874 76.1156 128.324Z" fill="white"/>
<path d="M104.165 121.297H112.505L110.222 132.166C107.943 132.904 105.569 133.273 103.099 133.273C100.72 133.273 98.8742 132.581 97.5617 131.195C96.2492 129.81 95.593 127.846 95.593 125.303C95.593 122.869 96.0943 120.673 97.0969 118.713C98.0995 116.753 99.4712 115.263 101.212 114.242C102.962 113.212 104.995 112.697 107.31 112.697C109.734 112.697 111.776 113.185 113.435 114.16L111.425 118.385C110.03 117.564 108.636 117.154 107.241 117.154C106.038 117.154 104.972 117.487 104.042 118.152C103.122 118.809 102.383 119.784 101.827 121.078C101.28 122.372 101.007 123.753 101.007 125.221C101.007 127.627 101.96 128.83 103.864 128.83C104.439 128.83 105.045 128.766 105.683 128.639L106.38 125.467H103.249L104.165 121.297ZM125.652 129.254H119.527L117.818 133H112.268L122.439 113.012H129.316L130.998 133H125.789L125.652 129.254ZM121.482 124.988H125.488L125.256 119.191L125.229 118.016C125.229 117.332 125.247 116.735 125.283 116.225C125.064 117.008 124.786 117.765 124.449 118.494L121.482 124.988ZM146.401 126.861C146.401 128.885 145.731 130.462 144.391 131.592C143.052 132.713 141.183 133.273 138.786 133.273C137.783 133.273 136.835 133.164 135.942 132.945C135.049 132.717 134.279 132.389 133.632 131.961V127.176C134.397 127.659 135.272 128.064 136.257 128.393C137.25 128.721 138.148 128.885 138.95 128.885C139.624 128.885 140.135 128.743 140.481 128.461C140.828 128.178 141.001 127.777 141.001 127.258C141.001 127.012 140.946 126.784 140.837 126.574C140.727 126.355 140.572 126.141 140.372 125.932C140.171 125.713 139.634 125.239 138.759 124.51C137.692 123.653 136.917 122.778 136.434 121.885C135.951 120.992 135.71 120.012 135.71 118.945C135.71 117.751 136.006 116.68 136.598 115.732C137.2 114.775 138.043 114.037 139.128 113.518C140.221 112.989 141.443 112.725 142.792 112.725C144.97 112.725 146.93 113.212 148.671 114.188L146.825 118.248C145.266 117.446 143.94 117.045 142.846 117.045C142.263 117.045 141.812 117.173 141.493 117.428C141.183 117.683 141.028 118.057 141.028 118.549C141.028 118.995 141.179 119.415 141.479 119.807C141.789 120.189 142.373 120.704 143.229 121.352C144.305 122.145 145.102 122.979 145.622 123.854C146.141 124.729 146.401 125.731 146.401 126.861Z" fill="#2796ED"/>
<path d="M44.2891 136.422C44.2891 136.245 44.3398 136.102 44.4414 135.992C44.543 135.883 44.6862 135.828 44.8711 135.828C45.0091 135.828 45.1211 135.863 45.207 135.934C45.293 136.001 45.3359 136.105 45.3359 136.246C45.3359 136.431 45.2839 136.577 45.1797 136.684C45.0755 136.79 44.9388 136.844 44.7695 136.844C44.6315 136.844 44.5169 136.81 44.4258 136.742C44.3346 136.674 44.2891 136.568 44.2891 136.422ZM44.1055 141.805H43.1836L44.1055 137.484H45.0234L44.1055 141.805ZM48.1453 141.805L48.7 139.18C48.7469 138.945 48.7703 138.775 48.7703 138.668C48.7703 138.327 48.6023 138.156 48.2664 138.156C48.0789 138.156 47.894 138.23 47.7117 138.379C47.5294 138.527 47.3654 138.742 47.2195 139.023C47.0737 139.302 46.9643 139.618 46.8914 139.973L46.5086 141.805H45.5867L46.5086 137.484H47.2273L47.1453 138.285H47.1805C47.3966 137.978 47.6193 137.755 47.8484 137.617C48.0776 137.477 48.3263 137.406 48.5945 137.406C48.9435 137.406 49.213 137.505 49.4031 137.703C49.5958 137.901 49.6922 138.182 49.6922 138.547C49.6922 138.727 49.6622 138.962 49.6023 139.254L49.0672 141.805H48.1453ZM53.0641 141.805L53.6188 139.18C53.6656 138.945 53.6891 138.775 53.6891 138.668C53.6891 138.327 53.5211 138.156 53.1852 138.156C52.9977 138.156 52.8128 138.23 52.6305 138.379C52.4482 138.527 52.2841 138.742 52.1383 139.023C51.9924 139.302 51.8831 139.618 51.8102 139.973L51.4273 141.805H50.5055L51.4273 137.484H52.1461L52.0641 138.285H52.0992C52.3154 137.978 52.538 137.755 52.7672 137.617C52.9964 137.477 53.2451 137.406 53.5133 137.406C53.8622 137.406 54.1318 137.505 54.3219 137.703C54.5146 137.901 54.6109 138.182 54.6109 138.547C54.6109 138.727 54.581 138.962 54.5211 139.254L53.9859 141.805H53.0641ZM58.5297 139.062C58.5297 138.784 58.4659 138.566 58.3383 138.41C58.2107 138.251 58.0284 138.172 57.7914 138.172C57.5492 138.172 57.3318 138.266 57.1391 138.453C56.949 138.638 56.8005 138.891 56.6938 139.211C56.5896 139.529 56.5375 139.868 56.5375 140.23C56.5375 140.52 56.6013 140.741 56.7289 140.895C56.8591 141.048 57.0505 141.125 57.3031 141.125C57.5375 141.125 57.7484 141.036 57.9359 140.859C58.1234 140.682 58.2693 140.435 58.3734 140.117C58.4776 139.797 58.5297 139.445 58.5297 139.062ZM59.4555 139.102C59.4555 139.628 59.3604 140.107 59.1703 140.539C58.9802 140.969 58.7185 141.299 58.3852 141.531C58.0544 141.76 57.6729 141.875 57.2406 141.875C56.7406 141.875 56.3435 141.727 56.0492 141.43C55.7549 141.13 55.6078 140.724 55.6078 140.211C55.6078 139.693 55.7003 139.217 55.8852 138.785C56.0727 138.353 56.3344 138.017 56.6703 137.777C57.0063 137.535 57.3943 137.414 57.8344 137.414C58.3422 137.414 58.7393 137.565 59.0258 137.867C59.3122 138.169 59.4555 138.581 59.4555 139.102ZM60.9289 141.805L60.4172 137.484H61.3234L61.5383 139.82C61.5747 140.234 61.593 140.621 61.593 140.98H61.6203C61.6932 140.788 61.7844 140.573 61.8937 140.336C62.0031 140.099 62.0878 139.927 62.1477 139.82L63.3625 137.484H64.3391L62.0031 141.805H60.9289ZM65.6836 141.883C65.3164 141.883 65.026 141.751 64.8125 141.488C64.599 141.223 64.4922 140.85 64.4922 140.371C64.4922 139.845 64.582 139.353 64.7617 138.895C64.944 138.436 65.194 138.074 65.5117 137.809C65.8294 137.54 66.1784 137.406 66.5586 137.406C66.8112 137.406 67.0286 137.466 67.2109 137.586C67.3932 137.703 67.5352 137.875 67.6367 138.102H67.6758L67.918 137.484H68.6211L67.6992 141.805H66.9883L67.0703 141.117H67.0469C66.6354 141.628 66.181 141.883 65.6836 141.883ZM66.0195 141.141C66.2331 141.141 66.4427 141.04 66.6484 140.84C66.8542 140.637 67.0234 140.366 67.1562 140.027C67.2891 139.689 67.3555 139.319 67.3555 138.918C67.3555 138.689 67.2943 138.505 67.1719 138.367C67.0495 138.227 66.8893 138.156 66.6914 138.156C66.4701 138.156 66.2617 138.257 66.0664 138.457C65.8711 138.658 65.7148 138.931 65.5977 139.277C65.4805 139.621 65.4219 139.978 65.4219 140.348C65.4219 140.613 65.474 140.812 65.5781 140.945C65.6849 141.076 65.832 141.141 66.0195 141.141ZM70.7352 141.141C70.9122 141.141 71.1089 141.1 71.325 141.02V141.715C71.2339 141.759 71.1102 141.798 70.9539 141.832C70.7977 141.866 70.6414 141.883 70.4852 141.883C69.7716 141.883 69.4148 141.561 69.4148 140.918C69.4148 140.77 69.4357 140.599 69.4773 140.406L69.95 138.18H69.3172L69.3992 137.75L70.1414 137.43L70.6453 136.523H71.2156L71.0125 137.484H72.1023L71.95 138.18H70.868L70.3914 140.414C70.3576 140.557 70.3406 140.677 70.3406 140.773C70.3406 140.885 70.3732 140.975 70.4383 141.043C70.5034 141.108 70.6023 141.141 70.7352 141.141ZM73.3844 136.422C73.3844 136.245 73.4352 136.102 73.5367 135.992C73.6383 135.883 73.7815 135.828 73.9664 135.828C74.1044 135.828 74.2164 135.863 74.3023 135.934C74.3883 136.001 74.4312 136.105 74.4312 136.246C74.4312 136.431 74.3792 136.577 74.275 136.684C74.1708 136.79 74.0341 136.844 73.8648 136.844C73.7268 136.844 73.6122 136.81 73.5211 136.742C73.4299 136.674 73.3844 136.568 73.3844 136.422ZM73.2008 141.805H72.2789L73.2008 137.484H74.1187L73.2008 141.805ZM75.4008 141.805L74.8891 137.484H75.7953L76.0102 139.82C76.0466 140.234 76.0648 140.621 76.0648 140.98H76.0922C76.1651 140.788 76.2563 140.573 76.3656 140.336C76.475 140.099 76.5596 139.927 76.6195 139.82L77.8344 137.484H78.8109L76.475 141.805H75.4008ZM81.1906 138.109C80.9406 138.109 80.7049 138.221 80.4836 138.445C80.2648 138.669 80.1073 138.965 80.0109 139.332H80.1242C80.6138 139.332 80.9966 139.263 81.2727 139.125C81.5487 138.984 81.6867 138.786 81.6867 138.531C81.6867 138.398 81.6451 138.296 81.5617 138.223C81.4784 138.147 81.3547 138.109 81.1906 138.109ZM80.5969 141.883C80.0839 141.883 79.6828 141.738 79.3937 141.449C79.1073 141.16 78.9641 140.757 78.9641 140.238C78.9641 139.723 79.0643 139.243 79.2648 138.801C79.468 138.355 79.7414 138.012 80.0852 137.77C80.4315 137.527 80.8182 137.406 81.2453 137.406C81.6646 137.406 81.9901 137.501 82.2219 137.691C82.4562 137.879 82.5734 138.146 82.5734 138.492C82.5734 138.966 82.356 139.337 81.9211 139.605C81.4888 139.871 80.8716 140.004 80.0695 140.004H79.9016L79.8937 140.125V140.238C79.8937 140.527 79.9667 140.754 80.1125 140.918C80.2609 141.082 80.481 141.164 80.7727 141.164C80.9602 141.164 81.1464 141.139 81.3312 141.09C81.5161 141.04 81.7349 140.956 81.9875 140.836V141.566C81.7375 141.681 81.507 141.762 81.2961 141.809C81.0878 141.858 80.8547 141.883 80.5969 141.883ZM86.5672 136.422C86.5672 136.245 86.618 136.102 86.7195 135.992C86.8211 135.883 86.9643 135.828 87.1492 135.828C87.2872 135.828 87.3992 135.863 87.4852 135.934C87.5711 136.001 87.6141 136.105 87.6141 136.246C87.6141 136.431 87.562 136.577 87.4578 136.684C87.3536 136.79 87.2169 136.844 87.0477 136.844C86.9096 136.844 86.7951 136.81 86.7039 136.742C86.6128 136.674 86.5672 136.568 86.5672 136.422ZM86.3836 141.805H85.4617L86.3836 137.484H87.3016L86.3836 141.805ZM90.4234 141.805L90.9781 139.18C91.025 138.945 91.0484 138.775 91.0484 138.668C91.0484 138.327 90.8805 138.156 90.5445 138.156C90.357 138.156 90.1721 138.23 89.9898 138.379C89.8076 138.527 89.6435 138.742 89.4977 139.023C89.3518 139.302 89.2424 139.618 89.1695 139.973L88.7867 141.805H87.8648L88.7867 137.484H89.5055L89.4234 138.285H89.4586C89.6747 137.978 89.8974 137.755 90.1266 137.617C90.3557 137.477 90.6044 137.406 90.8727 137.406C91.2216 137.406 91.4911 137.505 91.6813 137.703C91.874 137.901 91.9703 138.182 91.9703 138.547C91.9703 138.727 91.9404 138.962 91.8805 139.254L91.3453 141.805H90.4234ZM94.3773 141.141C94.5544 141.141 94.751 141.1 94.9672 141.02V141.715C94.876 141.759 94.7523 141.798 94.5961 141.832C94.4398 141.866 94.2836 141.883 94.1273 141.883C93.4138 141.883 93.057 141.561 93.057 140.918C93.057 140.77 93.0779 140.599 93.1195 140.406L93.5922 138.18H92.9594L93.0414 137.75L93.7836 137.43L94.2875 136.523H94.8578L94.6547 137.484H95.7445L95.5922 138.18H94.5102L94.0336 140.414C93.9997 140.557 93.9828 140.677 93.9828 140.773C93.9828 140.885 94.0154 140.975 94.0805 141.043C94.1456 141.108 94.2445 141.141 94.3773 141.141ZM98.3312 138.109C98.0812 138.109 97.8456 138.221 97.6242 138.445C97.4055 138.669 97.2479 138.965 97.1516 139.332H97.2648C97.7544 139.332 98.1372 139.263 98.4133 139.125C98.6893 138.984 98.8273 138.786 98.8273 138.531C98.8273 138.398 98.7857 138.296 98.7023 138.223C98.619 138.147 98.4953 138.109 98.3312 138.109ZM97.7375 141.883C97.2245 141.883 96.8234 141.738 96.5344 141.449C96.2479 141.16 96.1047 140.757 96.1047 140.238C96.1047 139.723 96.2049 139.243 96.4055 138.801C96.6086 138.355 96.882 138.012 97.2258 137.77C97.5721 137.527 97.9589 137.406 98.3859 137.406C98.8052 137.406 99.1307 137.501 99.3625 137.691C99.5969 137.879 99.7141 138.146 99.7141 138.492C99.7141 138.966 99.4966 139.337 99.0617 139.605C98.6294 139.871 98.0122 140.004 97.2102 140.004H97.0422L97.0344 140.125V140.238C97.0344 140.527 97.1073 140.754 97.2531 140.918C97.4016 141.082 97.6216 141.164 97.9133 141.164C98.1008 141.164 98.287 141.139 98.4719 141.09C98.6568 141.04 98.8755 140.956 99.1281 140.836V141.566C98.8781 141.681 98.6477 141.762 98.4367 141.809C98.2284 141.858 97.9953 141.883 97.7375 141.883ZM104.605 137.484L104.484 138.02L103.734 138.148C103.807 138.299 103.844 138.478 103.844 138.684C103.844 139.186 103.689 139.586 103.379 139.883C103.069 140.177 102.654 140.324 102.133 140.324C101.997 140.324 101.878 140.314 101.773 140.293C101.484 140.397 101.34 140.533 101.34 140.699C101.34 140.798 101.38 140.866 101.461 140.902C101.544 140.939 101.664 140.967 101.82 140.988L102.316 141.051C102.775 141.108 103.103 141.223 103.301 141.395C103.499 141.564 103.598 141.807 103.598 142.125C103.598 142.635 103.401 143.03 103.008 143.309C102.615 143.587 102.056 143.727 101.332 143.727C100.803 143.727 100.395 143.629 100.105 143.434C99.8138 143.238 99.668 142.97 99.668 142.629C99.668 142.361 99.7591 142.129 99.9414 141.934C100.121 141.738 100.411 141.573 100.812 141.438C100.615 141.32 100.516 141.155 100.516 140.941C100.516 140.762 100.576 140.607 100.695 140.477C100.818 140.344 101.009 140.216 101.27 140.094C100.918 139.883 100.742 139.555 100.742 139.109C100.742 138.599 100.901 138.188 101.219 137.875C101.539 137.562 101.961 137.406 102.484 137.406C102.693 137.406 102.901 137.432 103.109 137.484H104.605ZM101.406 141.734C101.115 141.781 100.891 141.874 100.734 142.012C100.578 142.15 100.5 142.32 100.5 142.523C100.5 142.693 100.572 142.827 100.715 142.926C100.861 143.027 101.082 143.078 101.379 143.078C101.803 143.078 102.135 143.008 102.375 142.867C102.615 142.727 102.734 142.525 102.734 142.262C102.734 142.129 102.676 142.025 102.559 141.949C102.441 141.874 102.236 141.82 101.941 141.789L101.406 141.734ZM102.461 138.02C102.292 138.02 102.143 138.07 102.016 138.172C101.888 138.271 101.789 138.408 101.719 138.582C101.648 138.754 101.613 138.943 101.613 139.148C101.613 139.333 101.659 139.477 101.75 139.578C101.844 139.677 101.977 139.727 102.148 139.727C102.318 139.727 102.464 139.676 102.586 139.574C102.711 139.473 102.807 139.333 102.875 139.156C102.945 138.979 102.98 138.785 102.98 138.574C102.98 138.204 102.807 138.02 102.461 138.02ZM107.626 137.406C107.787 137.406 107.928 137.422 108.048 137.453L107.848 138.309C107.708 138.272 107.575 138.254 107.45 138.254C107.122 138.254 106.829 138.401 106.571 138.695C106.313 138.99 106.134 139.375 106.032 139.852L105.618 141.805H104.696L105.618 137.484H106.337L106.255 138.285H106.29C106.506 137.973 106.722 137.749 106.938 137.613C107.154 137.475 107.384 137.406 107.626 137.406ZM109.267 136.422C109.267 136.245 109.318 136.102 109.42 135.992C109.521 135.883 109.664 135.828 109.849 135.828C109.987 135.828 110.099 135.863 110.185 135.934C110.271 136.001 110.314 136.105 110.314 136.246C110.314 136.431 110.262 136.577 110.158 136.684C110.054 136.79 109.917 136.844 109.748 136.844C109.61 136.844 109.495 136.81 109.404 136.742C109.313 136.674 109.267 136.568 109.267 136.422ZM109.084 141.805H108.162L109.084 137.484H110.002L109.084 141.805ZM112.159 141.141C112.336 141.141 112.532 141.1 112.748 141.02V141.715C112.657 141.759 112.534 141.798 112.377 141.832C112.221 141.866 112.065 141.883 111.909 141.883C111.195 141.883 110.838 141.561 110.838 140.918C110.838 140.77 110.859 140.599 110.901 140.406L111.373 138.18H110.741L110.823 137.75L111.565 137.43L112.069 136.523H112.639L112.436 137.484H113.526L113.373 138.18H112.291L111.815 140.414C111.781 140.557 111.764 140.677 111.764 140.773C111.764 140.885 111.797 140.975 111.862 141.043C111.927 141.108 112.026 141.141 112.159 141.141ZM113.909 137.484H114.816L115.062 139.559C115.085 139.72 115.106 139.948 115.124 140.242C115.142 140.534 115.152 140.77 115.152 140.949H115.175C115.399 140.389 115.575 139.982 115.702 139.727L116.847 137.484H117.839L115.152 142.484C114.917 142.914 114.662 143.228 114.386 143.426C114.11 143.626 113.786 143.727 113.413 143.727C113.215 143.727 113.029 143.702 112.855 143.652V142.918C113.05 142.96 113.213 142.98 113.343 142.98C113.536 142.98 113.71 142.923 113.866 142.809C114.023 142.697 114.184 142.495 114.351 142.203L114.55 141.844L113.909 137.484ZM122.973 140.477C122.973 140.927 122.82 141.275 122.512 141.52C122.205 141.762 121.778 141.883 121.231 141.883C120.736 141.883 120.317 141.796 119.973 141.621V140.828C120.372 141.062 120.778 141.18 121.192 141.18C121.445 141.18 121.649 141.128 121.805 141.023C121.962 140.919 122.04 140.777 122.04 140.598C122.04 140.465 121.994 140.352 121.903 140.258C121.815 140.161 121.631 140.034 121.352 139.875C121.027 139.701 120.796 139.523 120.661 139.344C120.528 139.161 120.462 138.947 120.462 138.699C120.462 138.296 120.601 137.979 120.88 137.75C121.158 137.521 121.535 137.406 122.009 137.406C122.519 137.406 122.97 137.516 123.36 137.734L123.063 138.422C122.699 138.224 122.352 138.125 122.024 138.125C121.834 138.125 121.679 138.168 121.559 138.254C121.442 138.34 121.384 138.46 121.384 138.613C121.384 138.73 121.427 138.835 121.512 138.926C121.598 139.017 121.774 139.134 122.04 139.277C122.313 139.431 122.507 139.562 122.622 139.672C122.736 139.781 122.824 139.901 122.884 140.031C122.943 140.159 122.973 140.307 122.973 140.477ZM124.111 137.484H125.017L125.263 139.559C125.287 139.72 125.308 139.948 125.326 140.242C125.344 140.534 125.353 140.77 125.353 140.949H125.377C125.601 140.389 125.776 139.982 125.904 139.727L127.048 137.484H128.041L125.353 142.484C125.119 142.914 124.864 143.228 124.588 143.426C124.311 143.626 123.987 143.727 123.615 143.727C123.417 143.727 123.231 143.702 123.056 143.652V142.918C123.252 142.96 123.414 142.98 123.545 142.98C123.737 142.98 123.912 142.923 124.068 142.809C124.224 142.697 124.386 142.495 124.552 142.203L124.752 141.844L124.111 137.484ZM130.897 140.477C130.897 140.927 130.743 141.275 130.436 141.52C130.129 141.762 129.702 141.883 129.155 141.883C128.66 141.883 128.241 141.796 127.897 141.621V140.828C128.295 141.062 128.702 141.18 129.116 141.18C129.368 141.18 129.573 141.128 129.729 141.023C129.885 140.919 129.963 140.777 129.963 140.598C129.963 140.465 129.918 140.352 129.827 140.258C129.738 140.161 129.554 140.034 129.276 139.875C128.95 139.701 128.72 139.523 128.584 139.344C128.452 139.161 128.385 138.947 128.385 138.699C128.385 138.296 128.524 137.979 128.803 137.75C129.082 137.521 129.458 137.406 129.932 137.406C130.442 137.406 130.893 137.516 131.284 137.734L130.987 138.422C130.622 138.224 130.276 138.125 129.948 138.125C129.758 138.125 129.603 138.168 129.483 138.254C129.366 138.34 129.307 138.46 129.307 138.613C129.307 138.73 129.35 138.835 129.436 138.926C129.522 139.017 129.698 139.134 129.963 139.277C130.237 139.431 130.431 139.562 130.545 139.672C130.66 139.781 130.747 139.901 130.807 140.031C130.867 140.159 130.897 140.307 130.897 140.477ZM133.421 141.141C133.598 141.141 133.795 141.1 134.011 141.02V141.715C133.92 141.759 133.796 141.798 133.64 141.832C133.484 141.866 133.327 141.883 133.171 141.883C132.458 141.883 132.101 141.561 132.101 140.918C132.101 140.77 132.122 140.599 132.163 140.406L132.636 138.18H132.003L132.085 137.75L132.827 137.43L133.331 136.523H133.902L133.698 137.484H134.788L134.636 138.18H133.554L133.077 140.414C133.043 140.557 133.027 140.677 133.027 140.773C133.027 140.885 133.059 140.975 133.124 141.043C133.189 141.108 133.288 141.141 133.421 141.141ZM137.375 138.109C137.125 138.109 136.889 138.221 136.668 138.445C136.449 138.669 136.292 138.965 136.195 139.332H136.309C136.798 139.332 137.181 139.263 137.457 139.125C137.733 138.984 137.871 138.786 137.871 138.531C137.871 138.398 137.829 138.296 137.746 138.223C137.663 138.147 137.539 138.109 137.375 138.109ZM136.781 141.883C136.268 141.883 135.867 141.738 135.578 141.449C135.292 141.16 135.148 140.757 135.148 140.238C135.148 139.723 135.249 139.243 135.449 138.801C135.652 138.355 135.926 138.012 136.27 137.77C136.616 137.527 137.003 137.406 137.43 137.406C137.849 137.406 138.174 137.501 138.406 137.691C138.641 137.879 138.758 138.146 138.758 138.492C138.758 138.966 138.54 139.337 138.105 139.605C137.673 139.871 137.056 140.004 136.254 140.004H136.086L136.078 140.125V140.238C136.078 140.527 136.151 140.754 136.297 140.918C136.445 141.082 136.665 141.164 136.957 141.164C137.145 141.164 137.331 141.139 137.516 141.09C137.701 141.04 137.919 140.956 138.172 140.836V141.566C137.922 141.681 137.691 141.762 137.48 141.809C137.272 141.858 137.039 141.883 136.781 141.883ZM142.337 137.406C142.91 137.406 143.24 137.712 143.329 138.324H143.36C143.555 138.022 143.777 137.794 144.024 137.641C144.274 137.484 144.533 137.406 144.802 137.406C145.148 137.406 145.411 137.507 145.591 137.707C145.773 137.905 145.864 138.185 145.864 138.547C145.864 138.714 145.835 138.949 145.778 139.254L145.231 141.805H144.313L144.872 139.18C144.921 138.932 144.946 138.759 144.946 138.66C144.946 138.324 144.789 138.156 144.473 138.156C144.192 138.156 143.929 138.318 143.684 138.641C143.442 138.964 143.265 139.392 143.153 139.926L142.759 141.805H141.841L142.399 139.18C142.443 138.966 142.466 138.801 142.466 138.684C142.466 138.332 142.313 138.156 142.009 138.156C141.722 138.156 141.457 138.322 141.212 138.652C140.97 138.983 140.79 139.423 140.673 139.973L140.29 141.805H139.368L140.29 137.484H141.009L140.927 138.285H140.962C141.347 137.699 141.805 137.406 142.337 137.406Z" fill="white"/>
<path fill-rule="evenodd" clip-rule="evenodd" d="M89.4999 53.0497C89.5507 52.9993 108.017 74.1539 108.017 84.2676C108.017 94.3813 99.72 102.592 89.4999 102.592C79.2797 102.592 70.9824 94.3813 70.9824 84.2676C70.9824 74.1539 89.449 53.1 89.4999 53.0497Z" fill="#2796ED"/>
<path fill-rule="evenodd" clip-rule="evenodd" d="M99.9543 93.3697C97.4487 97.0719 93.1834 99.5106 88.3479 99.5106C80.6439 99.5106 74.3895 93.3213 74.3895 85.6976C74.3895 81.566 77.5527 75.1022 80.4567 70.0406C82.9114 65.7628 81.9092 67.4823 80.4951 70.5071C78.4849 74.8068 77.043 79.4504 77.043 82.7032C77.043 90.345 83.3127 96.5494 91.0359 96.5494C94.4238 96.5494 97.5322 95.3552 99.9543 93.3697Z" fill="white"/>
<path fill-rule="evenodd" clip-rule="evenodd" d="M89.4999 33.1598C89.4999 33.1598 88.0158 38.7069 81.2977 48.1993C77.6987 53.2846 69.4215 62.4749 66.0222 68.9093C63.8094 73.0997 62.1783 79.1208 62.7476 83.8613C63.5684 90.7032 66.3188 96.9685 75.5646 104.41C75.5646 104.41 40.8212 87.401 59.3819 54.2859C59.3819 54.2859 63.2651 47.2759 71.5758 37.1052C78.1969 29.0007 89.4999 12.5771 89.4999 12.5771C89.4999 12.5771 100.907 29.1271 107.424 37.1052C115.735 47.2759 119.618 54.2859 119.618 54.2859C138.179 87.401 103.435 104.41 103.435 104.41C112.681 96.9685 115.431 90.7032 116.252 83.8613C116.822 79.1208 115.19 73.0997 112.978 68.9093C109.578 62.4749 101.301 53.2846 97.7022 48.1993C90.7671 38.401 89.4999 33.1598 89.4999 33.1598Z" fill="#FFC925"/>
</svg>
