<?xml version="1.0" encoding="UTF-8" standalone="no"?><!DOCTYPE svg PUBLIC "-//W3C//DTD SVG 1.1//EN" "http://www.w3.org/Graphics/SVG/1.1/DTD/svg11.dtd"><svg width="100%" height="100%" viewBox="0 0 24 24" version="1.1" xmlns="http://www.w3.org/2000/svg" xmlns:xlink="http://www.w3.org/1999/xlink" xml:space="preserve" xmlns:serif="http://www.serif.com/" style="fill-rule:evenodd;clip-rule:evenodd;stroke-linejoin:round;stroke-miterlimit:2;"><path d="M10.403,17.873l-7.243,0c-0.619,0 -1.122,-0.503 -1.122,-1.122l0,-13.591c0,-0.619 0.503,-1.122 1.122,-1.122l17.757,0c0.619,0 1.121,0.503 1.121,1.122l0,13.591c0,0.619 -0.502,1.122 -1.121,1.122l-7.243,0l0,3.091l4.262,0c0.272,0 0.493,0.221 0.493,0.493c0,0.273 -0.221,0.494 -0.493,0.494l-11.795,0c-0.272,0 -0.493,-0.221 -0.493,-0.494c0,-0.272 0.221,-0.493 0.493,-0.493l4.262,0l0,-3.091Zm11.042,-3.264l0,-11.449c0,-0.292 -0.236,-0.528 -0.528,-0.528l-17.757,0c-0.292,0 -0.528,0.236 -0.528,0.528l0,11.449l18.813,0Zm-5.646,-7.581c0.249,0.533 0.389,1.127 0.389,1.754c0,2.29 -1.86,4.149 -4.15,4.149c-2.29,0 -4.149,-1.859 -4.149,-4.149c0,-2.29 1.859,-4.149 4.149,-4.149c1.098,0 2.097,0.427 2.84,1.124l-3.016,3.063l-1.311,-1.339l-1.111,1.084l2.436,2.409l3.923,-3.946Z" style="fill:#9babbf;"/></svg>