<?xml version="1.0" encoding="UTF-8" standalone="no"?><!DOCTYPE svg PUBLIC "-//W3C//DTD SVG 1.1//EN" "http://www.w3.org/Graphics/SVG/1.1/DTD/svg11.dtd"><svg width="100%" height="100%" viewBox="0 0 24 24" version="1.1" xmlns="http://www.w3.org/2000/svg" xmlns:xlink="http://www.w3.org/1999/xlink" xml:space="preserve" xmlns:serif="http://www.serif.com/" style="fill-rule:evenodd;clip-rule:evenodd;stroke-linejoin:round;stroke-miterlimit:2;"><path d="M11.206,5.694l-1.202,-0.698l0,-2l1.722,-1l1.721,1l0,2l-1.203,0.699l0,3.939l2.967,1.724l0,4.025l-0.352,0.204l3.945,3.217l1.417,-0.823l1.722,1l0,2l-1.722,1l-1.721,-1l0,-1.086l-4.601,-3.75l-2.152,1.25l-1.975,-1.148l-4.331,3.286l0,1.448l-1.722,1l-1.721,-1l0,-2l1.721,-1l1.161,0.674l3.919,-2.973l-0.516,-0.299l0,-4.025l2.923,-1.698l0,-3.966Z" style="fill:#fff;"/></svg>