<?xml version="1.0" encoding="UTF-8" standalone="no"?><!DOCTYPE svg PUBLIC "-//W3C//DTD SVG 1.1//EN" "http://www.w3.org/Graphics/SVG/1.1/DTD/svg11.dtd"><svg width="100%" height="100%" viewBox="0 0 24 24" version="1.1" xmlns="http://www.w3.org/2000/svg" xmlns:xlink="http://www.w3.org/1999/xlink" xml:space="preserve" xmlns:serif="http://www.serif.com/" style="fill-rule:evenodd;clip-rule:evenodd;stroke-linejoin:round;stroke-miterlimit:2;"><path id="Piping-Reports" serif:id="Piping Reports" d="M19.389,15.022c0,-0.001 0.001,0 0.003,0.002c0,0.001 0.001,0.001 0.002,0.003l0,0.002c0.115,0.161 2.504,3.149 2.504,4.477c0,1.383 -1.123,2.506 -2.506,2.506c-1.383,0 -2.456,-1.043 -2.456,-2.427c0,-1.365 2.476,-4.395 2.458,-4.556l-0.005,-0.007Zm-8.997,-3.896l0,0.828l-1.619,0l0,-0.828l-3.124,0c-0.019,0 -0.683,0.008 -1.036,-0.066c-1.83,-0.38 -1.587,-2.532 -1.587,-2.556l0.017,-4.859l-1.125,0l0,-1.619l5.641,0l0,1.619l-1.152,0l-0.018,3.816l2.384,0l0,-0.859l1.619,0l0,0.859c0,0 8.292,0.001 8.302,0.001c0,0 0.839,0.017 0.922,0.022c1.389,0.082 1.532,0.769 1.478,3.513c0,0.011 0.001,0.021 0.001,0.032l0,2.649c0,0.303 -0.246,0.549 -0.549,0.549l-2.293,0c-0.303,0 -0.549,-0.246 -0.549,-0.549l0,-2.552l-7.312,0Z" style="fill:#fff;"/></svg>