<?xml version="1.0" encoding="UTF-8" standalone="no"?>
<!DOCTYPE svg PUBLIC "-//W3C//DTD SVG 1.1//EN" "http://www.w3.org/Graphics/SVG/1.1/DTD/svg11.dtd">
<svg width="100%" height="100%" viewBox="0 0 24 24" version="1.1" xmlns="http://www.w3.org/2000/svg" xmlns:xlink="http://www.w3.org/1999/xlink" xml:space="preserve" xmlns:serif="http://www.serif.com/" style="fill-rule:evenodd;clip-rule:evenodd;stroke-linejoin:round;stroke-miterlimit:2;">
    <g transform="matrix(0.879153,0.192976,-0.193487,0.881479,4.50054,0.278085)">
        <path d="M15.5,14L14.71,14L14.43,13.73C15.41,12.59 16,11.11 16,9.5C16,5.91 13.09,3 9.5,3C5.91,3 3,5.91 3,9.5C3,13.09 5.91,16 9.5,16C11.11,16 12.59,15.41 13.73,14.43L14,14.71L14,15.5L19,20.49L20.49,19L15.5,14ZM9.5,14C7.01,14 5,11.99 5,9.5C5,7.01 7.01,5 9.5,5C11.99,5 14,7.01 14,9.5C14,11.99 11.99,14 9.5,14Z" style="fill:white;fill-rule:nonzero;"/>
    </g>
    <g transform="matrix(1,0,0,1.24504,0,-4.164)">
        <path d="M18.814,17.395L20.43,17.395C21.275,17.395 21.962,16.843 21.962,16.164C21.962,16.164 21.962,6.182 21.962,6.182C21.962,5.503 21.275,4.951 20.43,4.951C20.43,4.951 3.596,4.951 3.596,4.951C2.75,4.951 2.064,5.503 2.064,6.182C2.064,6.182 2.064,16.164 2.064,16.164C2.064,16.843 2.75,17.395 3.596,17.395L7.15,17.395L7.15,16.592L3.596,16.592C3.302,16.592 3.064,16.4 3.064,16.164L3.064,6.182C3.064,5.946 3.302,5.754 3.596,5.754L20.43,5.754C20.723,5.754 20.962,5.946 20.962,6.182L20.962,16.164C20.962,16.4 20.723,16.592 20.43,16.592L18.814,16.592L18.814,17.395Z" style="fill:white;"/>
    </g>
</svg>
