<?xml version="1.0" encoding="UTF-8" standalone="no"?>
<!DOCTYPE svg PUBLIC "-//W3C//DTD SVG 1.1//EN" "http://www.w3.org/Graphics/SVG/1.1/DTD/svg11.dtd">
<svg width="100%" height="100%" viewBox="0 0 24 24" version="1.1" xmlns="http://www.w3.org/2000/svg" xmlns:xlink="http://www.w3.org/1999/xlink" xml:space="preserve" xmlns:serif="http://www.serif.com/" style="fill-rule:evenodd;clip-rule:evenodd;stroke-linejoin:round;stroke-miterlimit:2;">
    <path d="M2.658,4.446L2.001,4.446L2.001,2.021L6.901,2.021L6.901,4.446L6.463,4.446L6.56,4.806C6.56,4.806 6.661,4.748 6.54,6.22C6.458,7.213 7.024,7.634 6.479,8.298C6.333,8.475 6.165,8.574 5.991,8.607L5.991,15.302C5.991,16.799 7.206,18.014 8.704,18.014L17.527,18.014C17.777,17.637 18.232,17.386 18.758,17.516C19.052,17.589 19.307,17.665 19.528,17.741L19.528,17.106L21.953,17.106L21.953,22.006L19.528,22.006L19.528,21.405L19.447,21.425C19.447,21.425 19.51,21.526 17.907,21.405C16.826,21.323 16.367,21.889 15.645,21.344C15.549,21.272 15.475,21.195 15.419,21.114L8.704,21.114C5.496,21.114 2.891,18.51 2.891,15.302L2.891,6.918C2.453,6.689 2.135,6.197 2.278,5.619C2.4,5.128 2.529,4.745 2.658,4.446Z" style="fill:white;"/>
</svg>
