<?xml version="1.0" encoding="UTF-8" standalone="no"?><!DOCTYPE svg PUBLIC "-//W3C//DTD SVG 1.1//EN" "http://www.w3.org/Graphics/SVG/1.1/DTD/svg11.dtd"><svg width="100%" height="100%" viewBox="0 0 24 24" version="1.1" xmlns="http://www.w3.org/2000/svg" xmlns:xlink="http://www.w3.org/1999/xlink" xml:space="preserve" xmlns:serif="http://www.serif.com/" style="fill-rule:evenodd;clip-rule:evenodd;stroke-linejoin:round;stroke-miterlimit:2;"><path id="COF-Master" serif:id="COF Master" d="M18.402,16.207l-5.345,-5.298l-4.485,2.234c-0.388,0.193 -0.856,0.115 -1.16,-0.194l-5.086,-5.169c-0.387,-0.394 -0.382,-1.028 0.011,-1.416c0.394,-0.387 1.028,-0.382 1.416,0.012l4.576,4.651l4.478,-2.229c0.383,-0.192 0.846,-0.117 1.151,0.185l5.824,5.773l0.26,-2.628c0.054,-0.55 0.544,-0.952 1.094,-0.898c0.55,0.054 0.952,0.545 0.898,1.094l-0.478,4.837c-0.048,0.487 -0.44,0.867 -0.928,0.901l-4.567,0.311c-0.551,0.038 -1.029,-0.379 -1.067,-0.93c-0.037,-0.552 0.38,-1.03 0.931,-1.067l2.477,-0.169Z" style="fill:#fff;"/></svg>