<?xml version="1.0" encoding="UTF-8" standalone="no"?>
<!DOCTYPE svg PUBLIC "-//W3C//DTD SVG 1.1//EN" "http://www.w3.org/Graphics/SVG/1.1/DTD/svg11.dtd">
<svg width="100%" height="100%" viewBox="0 0 24 24" version="1.1" xmlns="http://www.w3.org/2000/svg" xmlns:xlink="http://www.w3.org/1999/xlink" xml:space="preserve" xmlns:serif="http://www.serif.com/" style="fill-rule:evenodd;clip-rule:evenodd;stroke-linejoin:round;stroke-miterlimit:2;">
    <path d="M21.953,4.902C21.953,3.301 20.653,2.001 19.052,2.001L4.902,2.001C3.301,2.001 2.001,3.301 2.001,4.902L2.001,15.455C2.001,17.056 3.301,18.356 4.902,18.356L10.333,18.356L15.656,22.006L15.754,18.356L19.052,18.356C20.653,18.356 21.953,17.056 21.953,15.455L21.953,4.902ZM14.706,20.142L14.755,18.329C14.769,17.788 15.213,17.356 15.754,17.356C15.754,17.356 19.052,17.356 19.052,17.356C20.101,17.356 20.953,16.504 20.953,15.455L20.953,4.902C20.953,3.852 20.101,3.001 19.052,3.001L4.902,3.001C3.852,3.001 3.001,3.852 3.001,4.902L3.001,15.455C3.001,16.504 3.852,17.356 4.902,17.356L10.333,17.356C10.535,17.356 10.733,17.417 10.899,17.531L14.706,20.142ZM10.548,13.937C10.548,13.347 10.835,13.053 11.41,13.053C11.691,13.053 11.906,13.13 12.054,13.284C12.203,13.438 12.277,13.656 12.277,13.937C12.277,14.215 12.202,14.434 12.051,14.597C11.901,14.759 11.687,14.84 11.41,14.84C11.132,14.84 10.919,14.761 10.771,14.602C10.622,14.444 10.548,14.222 10.548,13.937ZM10.789,12.068L10.789,11.693C10.789,11.264 10.867,10.906 11.023,10.621C11.179,10.336 11.453,10.041 11.843,9.736C12.308,9.369 12.608,9.084 12.743,8.881C12.877,8.678 12.945,8.435 12.945,8.154C12.945,7.826 12.835,7.574 12.617,7.398C12.398,7.222 12.083,7.135 11.673,7.135C11.302,7.135 10.958,7.187 10.642,7.293C10.326,7.398 10.017,7.525 9.716,7.674L9.224,6.642C10.017,6.201 10.867,5.98 11.773,5.98C12.539,5.98 13.146,6.168 13.595,6.543C14.044,6.918 14.269,7.435 14.269,8.096C14.269,8.389 14.226,8.649 14.14,8.878C14.054,9.106 13.924,9.324 13.75,9.531C13.577,9.738 13.277,10.008 12.851,10.34C12.488,10.625 12.245,10.861 12.122,11.049C11.998,11.236 11.937,11.488 11.937,11.805L11.937,12.068L10.789,12.068Z" style="fill:rgb(155,171,191);"/>
</svg>
