<?xml version="1.0" encoding="UTF-8" standalone="no"?>
<!DOCTYPE svg PUBLIC "-//W3C//DTD SVG 1.1//EN" "http://www.w3.org/Graphics/SVG/1.1/DTD/svg11.dtd">
<svg width="100%" height="100%" viewBox="0 0 24 24" version="1.1" xmlns="http://www.w3.org/2000/svg" xmlns:xlink="http://www.w3.org/1999/xlink" xml:space="preserve" xmlns:serif="http://www.serif.com/" style="fill-rule:evenodd;clip-rule:evenodd;stroke-linejoin:round;stroke-miterlimit:2;">
    <path d="M3.999,10.001C5.103,10.001 5.999,10.897 5.999,12C5.999,13.103 5.103,13.999 3.999,13.999C2.896,13.999 2,13.103 2,12C2,10.897 2.896,10.001 3.999,10.001ZM11.949,10.001C13.052,10.001 13.948,10.897 13.948,12C13.948,13.103 13.052,13.999 11.949,13.999C10.845,13.999 9.949,13.103 9.949,12C9.949,10.897 10.845,10.001 11.949,10.001ZM20.001,10.001C21.104,10.001 22,10.897 22,12C22,13.103 21.104,13.999 20.001,13.999C18.897,13.999 18.001,13.103 18.001,12C18.001,10.897 18.897,10.001 20.001,10.001Z" style="fill:rgb(255,252,252);"/>
</svg>
