<?xml version="1.0" encoding="UTF-8" standalone="no"?>
<!DOCTYPE svg PUBLIC "-//W3C//DTD SVG 1.1//EN" "http://www.w3.org/Graphics/SVG/1.1/DTD/svg11.dtd">
<svg width="100%" height="100%" viewBox="0 0 24 24" version="1.1" xmlns="http://www.w3.org/2000/svg" xmlns:xlink="http://www.w3.org/1999/xlink" xml:space="preserve" xmlns:serif="http://www.serif.com/" style="fill-rule:evenodd;clip-rule:evenodd;stroke-linejoin:round;stroke-miterlimit:2;">
    <path d="M2.658,4.446L2.001,4.446L2.001,2.021L7.901,2.021C7.901,2.021 7.889,3.315 7.903,4.246C7.905,4.363 7.76,4.24 7.757,4.283C7.753,4.335 8.016,5.163 8.115,5.429C8.461,6.363 8.024,6.634 7.479,7.298C7.333,7.475 8.498,9.273 6.991,9.828L6.991,14.302C6.991,15.799 8.206,17.014 9.704,17.014L17.527,17.014C17.777,16.637 18.232,16.386 18.758,16.516C19.052,16.589 19.307,16.665 19.528,16.741L19.528,16.106L21.953,16.106L21.953,22.006L19.528,22.006L19.528,21.405L19.447,21.425C19.447,21.425 19.51,21.526 17.907,21.405C16.826,21.323 16.367,21.889 15.645,21.344C15.549,21.272 15.475,21.195 15.419,21.114L8.704,21.114C5.496,21.114 2.891,18.51 2.891,15.302L2.891,6.918C2.453,6.689 2.135,6.197 2.278,5.619C2.4,5.128 2.529,4.745 2.658,4.446Z" style="fill:rgb(155,171,191);"/>
</svg>
