<?xml version="1.0" encoding="UTF-8" standalone="no"?><!DOCTYPE svg PUBLIC "-//W3C//DTD SVG 1.1//EN" "http://www.w3.org/Graphics/SVG/1.1/DTD/svg11.dtd"><svg width="100%" height="100%" viewBox="0 0 24 24" version="1.1" xmlns="http://www.w3.org/2000/svg" xmlns:xlink="http://www.w3.org/1999/xlink" xml:space="preserve" xmlns:serif="http://www.serif.com/" style="fill-rule:evenodd;clip-rule:evenodd;stroke-linejoin:round;stroke-miterlimit:2;"><path id="Utillits" d="M6.056,15.969l2.782,-2.726l1.833,1.871l-2.792,2.735l0.373,1.342c0.067,0.241 0.001,0.5 -0.172,0.68l-1.842,1.912c-0.19,0.198 -0.477,0.267 -0.736,0.18l-2.408,-0.815c-0.245,-0.083 -0.425,-0.292 -0.47,-0.546l-0.46,-2.585c-0.041,-0.228 0.032,-0.461 0.196,-0.624l1.505,-1.505c0.163,-0.164 0.396,-0.237 0.624,-0.197l1.567,0.278Zm2.591,-6.19l-3.902,-3.901l-1.297,-0.62l-1.118,-1.795l1.073,-1.047l1.782,1.105l0.62,1.297l3.901,3.902l1.559,-1.559l0.916,0.917l-0.781,0.781l3.901,3.901c0.759,-0.043 1.532,0.236 2.096,0.83l3.45,3.637c1.018,1.072 0.973,2.769 -0.099,3.787c-1.073,1.017 -2.769,0.972 -3.787,-0.1l-3.451,-3.637c-0.484,-0.51 -0.727,-1.162 -0.734,-1.814l-3.99,-3.99l-0.781,0.781l-0.917,-0.916l1.559,-1.559Zm-3.923,7.704l-0.786,0.786l0.258,1.447l1.268,0.429l1,-1.038l-0.385,-1.384l-1.355,-0.24Zm11.497,-2.778l3.451,3.637c0.402,0.424 0.385,1.094 -0.039,1.496c-0.424,0.402 -1.095,0.385 -1.497,-0.039l-3.45,-3.637c-0.402,-0.424 -0.385,-1.094 0.039,-1.497c0.424,-0.402 1.094,-0.384 1.496,0.04Zm-1.311,-7.59c-0.204,-0.454 -0.318,-0.957 -0.318,-1.487c0,-2.003 1.626,-3.628 3.628,-3.628c0.27,0 0.534,0.03 0.788,0.086l-2.178,2.13l0.574,2.238l2.272,0.608l2.108,-2.109c0.042,0.218 0.063,0.444 0.063,0.675c0,2.002 -1.625,3.627 -3.627,3.627c-0.514,0 -1.003,-0.107 -1.446,-0.299l-1.752,1.716l-1.833,-1.871l1.721,-1.686Z" style="fill:#fff;"/></svg>