<?xml version="1.0" encoding="UTF-8" standalone="no"?><!DOCTYPE svg PUBLIC "-//W3C//DTD SVG 1.1//EN" "http://www.w3.org/Graphics/SVG/1.1/DTD/svg11.dtd"><svg width="100%" height="100%" viewBox="0 0 24 24" version="1.1" xmlns="http://www.w3.org/2000/svg" xmlns:xlink="http://www.w3.org/1999/xlink" xml:space="preserve" xmlns:serif="http://www.serif.com/" style="fill-rule:evenodd;clip-rule:evenodd;stroke-linejoin:round;stroke-miterlimit:2;"><rect x="11.224" y="5.36" width="1.026" height="4.801" style="fill:#9babbf;"/><path d="M4.82,18.709l0.617,0.82l4.661,-3.507l-0.617,-0.82l-4.661,3.507Z" style="fill:#9babbf;"/><path d="M18.702,18.505l-0.617,0.82l-4.66,-3.507l0.617,-0.82l4.66,3.507Z" style="fill:#9babbf;"/><path d="M11.224,5.891c-0.816,-0.252 -1.409,-1.013 -1.409,-1.911c0,-1.104 0.896,-2 2,-2c1.104,0 2,0.896 2,2c0,0.954 -0.67,1.753 -1.565,1.952l0,3.725c1.981,0.239 3.519,1.927 3.519,3.972c0,0.804 -0.238,1.554 -0.648,2.182l3.52,2.648c0.352,-0.31 0.814,-0.498 1.32,-0.498c1.104,0 2,0.896 2,2c0,1.104 -0.896,2 -2,2c-1.104,0 -2,-0.896 -2,-2c0,-0.227 0.038,-0.445 0.108,-0.648l-3.615,-2.72c-0.71,0.643 -1.652,1.036 -2.685,1.036c-0.977,0 -1.872,-0.351 -2.567,-0.933l-3.349,2.52c0.103,0.241 0.16,0.507 0.16,0.786c0,1.104 -0.896,2 -2,2c-1.104,0 -2,-0.896 -2,-2c0,-1.104 0.896,-2 2,-2c0.454,0 0.872,0.151 1.207,0.405l3.283,-2.47c-0.463,-0.652 -0.734,-1.449 -0.734,-2.308c0,-2.023 1.505,-3.698 3.455,-3.963l0,-3.775Z" style="fill:#fff;"/></svg>