<?xml version="1.0" encoding="UTF-8" standalone="no"?>
<!DOCTYPE svg PUBLIC "-//W3C//DTD SVG 1.1//EN" "http://www.w3.org/Graphics/SVG/1.1/DTD/svg11.dtd">
<svg width="100%" height="100%" viewBox="0 0 24 24" version="1.1" xmlns="http://www.w3.org/2000/svg" xmlns:xlink="http://www.w3.org/1999/xlink" xml:space="preserve" xmlns:serif="http://www.serif.com/" style="fill-rule:evenodd;clip-rule:evenodd;stroke-linejoin:round;stroke-miterlimit:2;">
    <g transform="matrix(1.14081,0,0,1.14383,-1.42187,-1.43092)">
        <path d="M15.5,14L14.71,14L14.43,13.73C15.41,12.59 16,11.11 16,9.5C16,5.91 13.09,3 9.5,3C5.91,3 3,5.91 3,9.5C3,13.09 5.91,16 9.5,16C11.11,16 12.59,15.41 13.73,14.43L14,14.71L14,15.5L19,20.49L20.49,19L15.5,14ZM9.5,14C7.01,14 5,11.99 5,9.5C5,7.01 7.01,5 9.5,5C11.99,5 14,7.01 14,9.5C14,11.99 11.99,14 9.5,14Z" style="fill:white;fill-rule:nonzero;"/>
    </g>
    <path d="M8.816,6.828L8.816,6.244C8.816,6.139 8.901,6.054 9.006,6.054L9.825,6.054C9.931,6.054 10.016,6.139 10.016,6.244L10.016,6.828C10.283,6.892 10.535,6.998 10.763,7.138L11.176,6.725C11.25,6.65 11.371,6.65 11.445,6.725L12.024,7.304C12.099,7.378 12.099,7.499 12.024,7.573L11.611,7.986C11.751,8.214 11.857,8.466 11.921,8.733L12.505,8.733C12.61,8.733 12.695,8.818 12.695,8.924L12.695,9.743C12.695,9.848 12.61,9.933 12.505,9.933L11.921,9.933C11.857,10.201 11.751,10.452 11.611,10.68L12.024,11.093C12.099,11.168 12.099,11.288 12.024,11.362L11.445,11.942C11.371,12.016 11.25,12.016 11.176,11.942L10.763,11.528C10.535,11.669 10.283,11.774 10.016,11.838L10.016,12.422C10.016,12.527 9.931,12.613 9.825,12.613L9.006,12.613C8.901,12.613 8.816,12.527 8.816,12.422L8.816,11.838C8.548,11.774 8.297,11.669 8.069,11.528L7.656,11.942C7.581,12.016 7.461,12.016 7.386,11.942L6.807,11.362C6.733,11.288 6.733,11.168 6.807,11.093L7.221,10.68C7.08,10.452 6.975,10.201 6.911,9.933L6.327,9.933C6.222,9.933 6.136,9.848 6.136,9.743L6.136,8.924C6.136,8.818 6.222,8.733 6.327,8.733L6.911,8.733C6.975,8.466 7.08,8.214 7.221,7.986L6.807,7.573C6.733,7.499 6.733,7.378 6.807,7.304L7.386,6.725C7.461,6.65 7.581,6.65 7.656,6.725L8.069,7.138C8.297,6.998 8.548,6.892 8.816,6.828ZM9.416,7.845C10.237,7.845 10.904,8.512 10.904,9.333C10.904,10.154 10.237,10.821 9.416,10.821C8.595,10.821 7.928,10.154 7.928,9.333C7.928,8.512 8.595,7.845 9.416,7.845Z" style="fill:white;"/>
</svg>
