<?xml version="1.0" encoding="UTF-8" standalone="no"?><!DOCTYPE svg PUBLIC "-//W3C//DTD SVG 1.1//EN" "http://www.w3.org/Graphics/SVG/1.1/DTD/svg11.dtd"><svg width="100%" height="100%" viewBox="0 0 24 24" version="1.1" xmlns="http://www.w3.org/2000/svg" xmlns:xlink="http://www.w3.org/1999/xlink" xml:space="preserve" xmlns:serif="http://www.serif.com/" style="fill-rule:evenodd;clip-rule:evenodd;stroke-linejoin:round;stroke-miterlimit:2;"><path d="M3.999,10.001c1.104,0 2,0.896 2,1.999c0,1.103 -0.896,1.999 -2,1.999c-1.103,0 -1.999,-0.896 -1.999,-1.999c0,-1.103 0.896,-1.999 1.999,-1.999Zm7.95,0c1.103,0 1.999,0.896 1.999,1.999c0,1.103 -0.896,1.999 -1.999,1.999c-1.104,0 -2,-0.896 -2,-1.999c0,-1.103 0.896,-1.999 2,-1.999Zm8.052,0c1.103,0 1.999,0.896 1.999,1.999c0,1.103 -0.896,1.999 -1.999,1.999c-1.104,0 -2,-0.896 -2,-1.999c0,-1.103 0.896,-1.999 2,-1.999Z" style="fill:#9babbf;"/></svg>