<?xml version="1.0" encoding="UTF-8" standalone="no"?><!DOCTYPE svg PUBLIC "-//W3C//DTD SVG 1.1//EN" "http://www.w3.org/Graphics/SVG/1.1/DTD/svg11.dtd"><svg width="100%" height="100%" viewBox="0 0 150 93" version="1.1" xmlns="http://www.w3.org/2000/svg" xmlns:xlink="http://www.w3.org/1999/xlink" xml:space="preserve" xmlns:serif="http://www.serif.com/" style="fill-rule:evenodd;clip-rule:evenodd;stroke-linejoin:round;stroke-miterlimit:2;"><path id="COF-Master" serif:id="COF Master" d="M122.722,75.973l-40.082,-39.732l-33.643,16.753c-2.908,1.448 -6.419,0.861 -8.698,-1.455l-38.144,-38.767c-2.906,-2.954 -2.868,-7.711 0.086,-10.617c2.953,-2.906 7.71,-2.868 10.616,0.086l34.324,34.884l33.579,-16.722c2.878,-1.433 6.349,-0.875 8.632,1.389l43.683,43.302l1.946,-19.714c0.407,-4.123 4.085,-7.14 8.209,-6.733c4.123,0.407 7.14,4.085 6.733,8.208l-3.581,36.277c-0.36,3.648 -3.303,6.503 -6.96,6.753l-34.253,2.335c-4.134,0.282 -7.719,-2.846 -8.001,-6.979c-0.281,-4.134 2.846,-7.719 6.98,-8.001l18.574,-1.267Z" style="fill:#9babbf;"/></svg>