<?xml version="1.0" encoding="UTF-8" standalone="no"?><!DOCTYPE svg PUBLIC "-//W3C//DTD SVG 1.1//EN" "http://www.w3.org/Graphics/SVG/1.1/DTD/svg11.dtd"><svg width="100%" height="100%" viewBox="0 0 24 24" version="1.1" xmlns="http://www.w3.org/2000/svg" xmlns:xlink="http://www.w3.org/1999/xlink" xml:space="preserve" xmlns:serif="http://www.serif.com/" style="fill-rule:evenodd;clip-rule:evenodd;stroke-linejoin:round;stroke-miterlimit:2;"><path d="M5.605,11.138l-3.104,0c-0.208,0 -0.395,-0.129 -0.468,-0.324c-0.073,-0.196 -0.017,-0.416 0.14,-0.553l9.33,-8.13c0.185,-0.162 0.461,-0.164 0.649,-0.007l9.629,8.131c0.161,0.135 0.221,0.357 0.149,0.554c-0.072,0.198 -0.26,0.329 -0.47,0.329l-2.754,0l0,10.36c0,0.276 -0.224,0.5 -0.5,0.5l-12.101,0c-0.276,0 -0.5,-0.224 -0.5,-0.5c0,-0.276 0.224,-0.5 0.5,-0.5l11.601,0l0,-10.36c0,-0.276 0.224,-0.5 0.5,-0.5l1.878,0l-8.247,-6.973l-8,6.973l2.268,0c0.276,0 0.5,0.224 0.5,0.5l0,3.538c0,0.276 -0.224,0.5 -0.5,0.5c-0.276,0 -0.5,-0.224 -0.5,-0.5l0,-3.038Zm2.622,3.372l1.578,0l0,-5.534l5.203,0l0,7.209l-5.203,0l0,3.04l-7.774,0l0,-4.715l2.144,0l0,3.39l4.052,0l0,-3.39Z" style="fill:#9babbf;"/></svg>