<?xml version="1.0" encoding="UTF-8" standalone="no"?><!DOCTYPE svg PUBLIC "-//W3C//DTD SVG 1.1//EN" "http://www.w3.org/Graphics/SVG/1.1/DTD/svg11.dtd"><svg width="100%" height="100%" viewBox="0 0 24 24" version="1.1" xmlns="http://www.w3.org/2000/svg" xmlns:xlink="http://www.w3.org/1999/xlink" xml:space="preserve" xmlns:serif="http://www.serif.com/" style="fill-rule:evenodd;clip-rule:evenodd;stroke-linejoin:round;stroke-miterlimit:2;"><path id="Others" d="M12,2c-5.519,0 -10,4.481 -10,10c0,5.519 4.481,10 10,10c5.519,0 10,-4.481 10,-10c0,-5.519 -4.481,-10 -10,-10Zm0,0.83c5.061,0 9.17,4.109 9.17,9.17c0,5.061 -4.109,9.17 -9.17,9.17c-5.061,0 -9.17,-4.109 -9.17,-9.17c0,-5.061 4.109,-9.17 9.17,-9.17Zm-0.55,10.346c0,-0.257 -0.208,-0.465 -0.465,-0.465l-3.21,0c-0.256,0 -0.465,0.208 -0.465,0.465l0,3.147c0,0.256 0.209,0.464 0.465,0.464l3.21,0c0.257,0 0.465,-0.208 0.465,-0.464l0,-3.147Zm4.969,0c0,-0.257 -0.208,-0.465 -0.465,-0.465l-3.21,0c-0.257,0 -0.465,0.208 -0.465,0.465l0,3.147c0,0.256 0.208,0.464 0.465,0.464l3.21,0c0.257,0 0.465,-0.208 0.465,-0.464l0,-3.147Zm0.048,-2.924c0.154,-0.153 0.155,-0.402 0.002,-0.556l-1.914,-1.93c-0.153,-0.154 -0.402,-0.155 -0.557,-0.002l-1.891,1.876c-0.154,0.153 -0.155,0.403 -0.002,0.557l1.914,1.929c0.153,0.154 0.402,0.155 0.557,0.002l1.891,-1.876Zm-5.017,-2.056c0,-0.256 -0.208,-0.465 -0.465,-0.465l-3.21,0c-0.256,0 -0.465,0.209 -0.465,0.465l0,3.147c0,0.257 0.209,0.465 0.465,0.465l3.21,0c0.257,0 0.465,-0.208 0.465,-0.465l0,-3.147Z" style="fill:#9babbf;"/></svg>