<?xml version="1.0" encoding="UTF-8" standalone="no"?>
<!DOCTYPE svg PUBLIC "-//W3C//DTD SVG 1.1//EN" "http://www.w3.org/Graphics/SVG/1.1/DTD/svg11.dtd">
<svg width="100%" height="100%" viewBox="0 0 24 24" version="1.1" xmlns="http://www.w3.org/2000/svg" xmlns:xlink="http://www.w3.org/1999/xlink" xml:space="preserve" xmlns:serif="http://www.serif.com/" style="fill-rule:evenodd;clip-rule:evenodd;stroke-linejoin:round;stroke-miterlimit:2;">
    <g transform="matrix(1.2822,0,0,1.2822,-35.7934,-3.38306)">
        <path d="M32.549,4.507L40.005,4.507L43.334,7.536L43.412,18.349L43.386,19.247L42.877,19.555L32.95,19.581L32.324,19.247L32.219,18.454L32.219,5.373C32.219,5.373 31.988,4.822 32.549,4.507Z" style="fill:white;"/>
        <g>
            <g>
                <path d="M31.995,12.945L31.995,5.132C31.995,4.617 32.413,4.199 32.928,4.199L40.302,4.199L43.672,7.543L43.672,18.868C43.672,19.383 43.254,19.801 42.739,19.801L32.928,19.801C32.413,19.801 31.995,19.383 31.995,18.868L31.995,17.618L30.877,17.618L30.877,12.945L31.995,12.945ZM32.549,17.618L32.549,18.868C32.549,19.077 32.719,19.247 32.928,19.247L42.739,19.247C42.948,19.247 43.118,19.077 43.118,18.868L43.118,8.09L41.255,8.09C40.419,8.09 39.741,7.411 39.741,6.576L39.741,4.753L32.928,4.753C32.719,4.753 32.549,4.923 32.549,5.132L32.549,12.945L37.986,12.945C39.276,12.945 40.323,13.992 40.323,15.282C40.323,16.571 39.276,17.618 37.986,17.618L32.549,17.618ZM34.013,14.86C34.013,15.083 33.94,15.253 33.794,15.372C33.648,15.491 33.441,15.55 33.171,15.55L32.95,15.55L32.95,16.348L32.601,16.348L32.601,14.216L33.215,14.216C33.481,14.216 33.681,14.27 33.814,14.379C33.946,14.488 34.013,14.648 34.013,14.86ZM36.976,16.348L36.63,16.348L36.63,14.216L37.833,14.216L37.833,14.51L36.976,14.51L36.976,15.177L37.779,15.177L37.779,15.473L36.976,15.473L36.976,16.348ZM36.172,15.261C36.172,15.613 36.075,15.882 35.879,16.068C35.684,16.254 35.402,16.348 35.035,16.348L34.438,16.348L34.438,14.216L35.098,14.216C35.437,14.216 35.701,14.307 35.889,14.49C36.078,14.672 36.172,14.93 36.172,15.261ZM35.805,15.273C35.805,14.762 35.566,14.507 35.089,14.507L34.787,14.507L34.787,16.054L35.035,16.054C35.548,16.054 35.805,15.794 35.805,15.273ZM32.95,15.257L33.135,15.257C33.314,15.257 33.445,15.226 33.528,15.163C33.612,15.101 33.654,15.004 33.654,14.872C33.654,14.749 33.616,14.658 33.542,14.598C33.467,14.537 33.35,14.507 33.192,14.507L32.95,14.507L32.95,15.257ZM40.295,4.973L40.295,6.576C40.295,7.106 40.725,7.536 41.255,7.536L42.877,7.536L40.295,4.973Z" style="fill:rgb(237,28,36);"/>
            </g>
        </g>
    </g>
</svg>
