<?xml version="1.0" encoding="UTF-8" standalone="no"?><!DOCTYPE svg PUBLIC "-//W3C//DTD SVG 1.1//EN" "http://www.w3.org/Graphics/SVG/1.1/DTD/svg11.dtd"><svg width="100%" height="100%" viewBox="0 0 150 149" version="1.1" xmlns="http://www.w3.org/2000/svg" xmlns:xlink="http://www.w3.org/1999/xlink" xml:space="preserve" xmlns:serif="http://www.serif.com/" style="fill-rule:evenodd;clip-rule:evenodd;stroke-linejoin:round;stroke-miterlimit:2;"><path id="Piping-Reports" serif:id="Piping Reports" d="M131.218,96.527c-0.036,-0.05 -0.042,-0.064 -0.015,-0.037c0.008,0.008 0.014,0.021 0.015,0.037c0.862,1.208 18.782,23.622 18.782,33.578c0,10.375 -8.423,18.797 -18.797,18.797c-10.375,0 -18.797,-8.422 -18.797,-18.797c0,-10.238 18.95,-32.366 18.812,-33.578Zm-49.203,-28.404l0,6.208l-12.143,0l0,-6.208l-34.267,0c-0.14,0 -0.28,-0.008 -0.419,-0.022c0,0 -3.064,-0.315 -5.712,-0.857c-3.611,-0.739 -8.261,-2.399 -12.35,-6.368c-3.908,-3.793 -7.395,-9.759 -8.651,-19.388c-0.023,-0.176 -0.035,-0.354 -0.035,-0.532l0,-28.813l-8.438,0l0,-12.143l49.806,0l0,12.143l-8.644,0l0,20.992l28.71,0l0,-8.61l12.143,0l0,8.61l40.029,0c0.073,0 0.146,0.002 0.219,0.006c0,0 2.264,0.129 3.396,0.318c5.64,0.941 20.898,5.288 22.105,26.194c0.004,0.079 0.006,0.158 0.006,0.237l0,27.373c0,2.273 -1.842,4.116 -4.116,4.116l-24.697,0c-2.273,0 -4.116,-1.843 -4.116,-4.116l0,-19.14l-32.826,0Zm0,-8.233l36.942,0c2.274,0 4.116,1.843 4.116,4.116l0,19.141l16.465,0l0,-23.119c-0.886,-14.559 -11.293,-17.792 -15.234,-18.449c-0.699,-0.117 -1.989,-0.192 -2.37,-0.212l-39.919,0l0,18.523Zm-49.086,-47.747l-16.259,0l0,28.53c1.883,13.786 9.471,17.486 14.455,18.506c1.903,0.39 4.056,0.641 4.704,0.711l34.043,0l0,-18.523l-32.826,0c-2.274,0 -4.117,-1.842 -4.117,-4.116l0,-25.108Z" style="fill:#9babbf;"/></svg>