<?xml version="1.0" encoding="UTF-8" standalone="no"?><!DOCTYPE svg PUBLIC "-//W3C//DTD SVG 1.1//EN" "http://www.w3.org/Graphics/SVG/1.1/DTD/svg11.dtd"><svg width="100%" height="100%" viewBox="0 0 150 150" version="1.1" xmlns="http://www.w3.org/2000/svg" xmlns:xlink="http://www.w3.org/1999/xlink" xml:space="preserve" xmlns:serif="http://www.serif.com/" style="fill-rule:evenodd;clip-rule:evenodd;stroke-linejoin:round;stroke-miterlimit:2;"><path d="M75,0c-41.4,0 -75,33.6 -75,75c0,41.4 33.6,75 75,75c41.4,0 75,-33.6 75,-75c0,-41.4 -33.6,-75 -75,-75Zm0,22.5c12.45,0 22.5,10.05 22.5,22.5c0,12.45 -10.05,22.5 -22.5,22.5c-12.45,0 -22.5,-10.05 -22.5,-22.5c0,-12.45 10.05,-22.5 22.5,-22.5Zm0,106.5c-18.75,0 -35.325,-9.6 -45,-24.15c0.225,-14.925 30,-23.1 45,-23.1c14.925,0 44.775,8.175 45,23.1c-9.675,14.55 -26.25,24.15 -45,24.15Z" style="fill:#ebebeb;fill-rule:nonzero;"/></svg>