<?xml version="1.0" encoding="UTF-8" standalone="no"?><!DOCTYPE svg PUBLIC "-//W3C//DTD SVG 1.1//EN" "http://www.w3.org/Graphics/SVG/1.1/DTD/svg11.dtd"><svg width="100%" height="100%" viewBox="0 0 150 150" version="1.1" xmlns="http://www.w3.org/2000/svg" xmlns:xlink="http://www.w3.org/1999/xlink" xml:space="preserve" xmlns:serif="http://www.serif.com/" style="fill-rule:evenodd;clip-rule:evenodd;stroke-linejoin:round;stroke-miterlimit:2;"><path d="M107.204,94.34l-6.775,0l-2.402,-2.316c8.405,-9.777 13.465,-22.47 13.465,-36.278c0,-30.789 -24.957,-55.746 -55.746,-55.746c-30.789,0 -55.746,24.957 -55.746,55.746c0,30.789 24.957,55.746 55.746,55.746c13.808,0 26.501,-5.06 36.278,-13.465l2.316,2.402l0,6.775l42.881,42.796l12.779,-12.779l-42.796,-42.881Zm-51.458,0c-21.355,0 -38.593,-17.239 -38.593,-38.594c0,-21.355 17.238,-38.593 38.593,-38.593c21.355,0 38.594,17.238 38.594,38.593c0,21.355 -17.239,38.594 -38.594,38.594Z" style="fill:#ebebeb;fill-rule:nonzero;"/></svg>