<?xml version="1.0" encoding="UTF-8" standalone="no"?><!DOCTYPE svg PUBLIC "-//W3C//DTD SVG 1.1//EN" "http://www.w3.org/Graphics/SVG/1.1/DTD/svg11.dtd"><svg width="100%" height="100%" viewBox="0 0 24 24" version="1.1" xmlns="http://www.w3.org/2000/svg" xmlns:xlink="http://www.w3.org/1999/xlink" xml:space="preserve" xmlns:serif="http://www.serif.com/" style="fill-rule:evenodd;clip-rule:evenodd;stroke-linejoin:round;stroke-miterlimit:2;"><path d="M12.409,10.108l0,-4.718l-0.148,-0.085c-0.077,-0.044 -0.125,-0.125 -0.125,-0.213l0,-1.983c0,-0.088 0.048,-0.17 0.125,-0.214l1.732,-0.992c0.077,-0.044 0.173,-0.044 0.251,0l1.732,0.992c0.077,0.044 0.124,0.126 0.124,0.214l0,1.983c0,0.088 -0.047,0.169 -0.124,0.213l-1.732,0.992c-0.078,0.044 -0.174,0.044 -0.251,0l-0.363,-0.194l0,4.638l1.603,0.984l0,3.671l3.841,2.9l1.034,-0.593c0.078,-0.044 0.174,-0.044 0.251,0l1.732,0.992c0.077,0.044 0.125,0.126 0.125,0.214l0,1.983c0,0.088 -0.048,0.169 -0.125,0.213l-1.732,0.992c-0.077,0.044 -0.173,0.044 -0.251,0l-1.732,-0.992c-0.077,-0.044 -0.124,-0.125 -0.124,-0.213l0.061,-1.749l-3.924,-2.866l-2.62,1.399l-2.632,-1.372l-3.633,2.727l0.244,1.861c0,0.088 -0.047,0.169 -0.124,0.213l-1.732,0.992c-0.078,0.044 -0.174,0.044 -0.251,0l-1.732,-0.992c-0.077,-0.044 -0.125,-0.125 -0.125,-0.213l0,-1.983c0,-0.088 0.048,-0.17 0.125,-0.214l1.732,-0.992c0.077,-0.044 0.173,-0.044 0.251,0l0.797,0.457l3.616,-2.689l0,-3.746l1.661,-1.001l0,-4.6l-0.426,0.173c-0.078,0.044 -0.174,0.044 -0.252,0l-1.732,-0.992c-0.077,-0.044 -0.124,-0.125 -0.124,-0.213l0,-1.983c0,-0.088 0.047,-0.17 0.124,-0.214l1.732,-0.992c0.078,-0.044 0.174,-0.044 0.252,0l1.732,0.992c0.077,0.044 0.124,0.126 0.124,0.214l0,1.983c0,0.088 -0.047,0.169 -0.124,0.213l-0.131,0.075l0,4.721l0.628,-0.359l0.64,0.366Z" style="fill:#9babbf;"/></svg>