<?xml version="1.0" encoding="UTF-8" standalone="no"?>
<!DOCTYPE svg PUBLIC "-//W3C//DTD SVG 1.1//EN" "http://www.w3.org/Graphics/SVG/1.1/DTD/svg11.dtd">
<svg width="100%" height="100%" viewBox="0 0 21 21" version="1.1" xmlns="http://www.w3.org/2000/svg" xmlns:xlink="http://www.w3.org/1999/xlink" xml:space="preserve" xmlns:serif="http://www.serif.com/" style="fill-rule:evenodd;clip-rule:evenodd;stroke-linejoin:round;stroke-miterlimit:2;">
    <g transform="matrix(1,0,0,1,-1.0587,-2.00056)">
        <g transform="matrix(1.24573,0,0,1.25801,-44.5257,-3.09281)">
            <g transform="matrix(1,0,0,1,15.957,0.208783)">
                <g transform="matrix(1,0,0,1,4.17566,0.747653)">
                    <path d="M20.235,7.033L20.228,7.033L20.228,3.565C20.228,3.304 20.44,3.092 20.701,3.092L26.749,3.092L26.749,7.033L26.17,7.033L26.17,6.993C26.17,6.47 25.809,6.046 25.365,6.046L20.235,6.046L20.235,7.033Z" style="fill:rgb(33,163,102);"/>
                </g>
                <g transform="matrix(1,0,0,-1,4.17566,22.8348)">
                    <path d="M26.749,3.092L26.749,7.033L20.228,7.033L20.228,3.565C20.228,3.304 20.44,3.092 20.701,3.092L26.749,3.092Z" style="fill:rgb(24,92,55);"/>
                </g>
                <g transform="matrix(1,0,0,1,4.17566,0.747653)">
                    <rect x="20.235" y="7.033" width="6.514" height="4.011" style="fill:rgb(16,124,65);"/>
                </g>
                <g transform="matrix(1,0,0,1,4.17566,0.747653)">
                    <rect x="20.235" y="7.033" width="6.514" height="4.011" style="fill:rgb(16,124,65);"/>
                </g>
                <g transform="matrix(1,0,0,1,4.17566,0.747653)">
                    <path d="M20.235,7.033L26.749,7.033L26.749,11.044L26.17,11.044L26.17,7.033L20.235,7.033Z" style="fill:rgb(16,124,65);"/>
                </g>
                <g transform="matrix(1,0,0,-1,4.17566,22.8348)">
                    <path d="M20.235,7.033L20.235,11.044L26.749,11.044L26.749,7.033L26.17,7.033L26.17,11.044L20.235,11.044L20.235,7.033Z" style="fill:rgb(24,92,55);"/>
                </g>
                <g transform="matrix(0.920954,0,0,1.17584,5.78118,-0.176631)">
                    <path d="M26.163,14.065L26.163,14.249C26.163,14.693 25.802,15.054 25.357,15.054L20.228,15.054L20.228,14.065L26.163,14.065Z" style="fill:rgb(19,74,44);"/>
                </g>
                <g transform="matrix(1.00011,0,0,1.17584,4.18006,-0.736263)">
                    <path d="M26.163,14.065L26.163,14.249C26.163,14.693 25.802,15.054 25.357,15.054L20.228,15.054L20.228,14.065L26.163,14.065Z" style="fill:rgb(18,66,39);"/>
                </g>
                <g transform="matrix(1.00011,0,0,1.17584,4.18006,-0.736263)">
                    <rect x="20.228" y="10.654" width="5.935" height="3.411" style="fill:rgb(14,53,31);"/>
                </g>
                <g transform="matrix(1.00011,0,0,1.17584,4.18006,-0.736263)">
                    <rect x="20.228" y="7.243" width="5.935" height="3.411" style="fill:rgb(14,111,58);"/>
                </g>
                <g transform="matrix(1.00011,0,0,1.17584,4.18006,-0.736263)">
                    <path d="M20.228,7.243L20.228,6.404L25.357,6.404C25.802,6.404 26.163,6.765 26.163,7.209L26.163,7.243L20.228,7.243Z" style="fill:rgb(30,146,92);"/>
                </g>
                <g transform="matrix(1,0,0,1,4.17566,0.747653)">
                    <path d="M20.235,7.033L20.235,6.404L24.959,6.404C25.295,6.404 25.579,6.664 25.618,7.033L20.235,7.033Z" style="fill:rgb(19,94,59);"/>
                </g>
                <g transform="matrix(1,0,0,-1,4.18222,22.8348)">
                    <path d="M25.594,7.033C25.545,6.686 25.272,6.451 24.952,6.451L20.228,6.451L20.228,7.033L25.594,7.033Z" style="fill:rgb(11,43,26);"/>
                </g>
                <g transform="matrix(1,0,0,1,4.16911,0.747653)">
                    <rect x="20.235" y="7.033" width="0.007" height="4.011" style="fill:rgb(16,124,65);"/>
                </g>
                <g transform="matrix(1,0,0,1,4.16911,0.747653)">
                    <path d="M20.241,11.044L20.241,7.033L25.625,7.033C25.624,7.031 25.645,7.057 25.668,7.114C25.695,7.179 25.69,7.333 25.692,7.337L25.707,11.044L20.241,11.044Z" style="fill:rgb(9,71,37);"/>
                </g>
                <g transform="matrix(0.920954,0,0,1.06723,5.78118,0.317123)">
                    <path d="M20.228,15.054L20.228,10.751L26.163,10.751L26.163,14.249L26.055,14.509L20.228,14.509L20.228,15.054Z" style="fill:rgb(9,37,21);"/>
                </g>
            </g>
            <g transform="matrix(-1,0,0,1,73.6306,0.956436)">
                <path d="M26.749,3.092L26.749,7.033L20.228,7.033L20.228,3.565C20.228,3.304 20.44,3.092 20.701,3.092L26.749,3.092Z" style="fill:rgb(51,196,129);"/>
            </g>
            <g transform="matrix(-1,0,0,-1,73.6306,23.0436)">
                <path d="M26.749,3.092L26.749,7.033L20.228,7.033L20.228,3.565C20.228,3.304 20.44,3.092 20.701,3.092L26.749,3.092Z" style="fill:rgb(24,92,55);"/>
            </g>
            <g transform="matrix(-1,0,0,1,73.6306,0.956436)">
                <rect x="20.235" y="7.033" width="6.514" height="4.011" style="fill:rgb(33,163,102);"/>
            </g>
            <g transform="matrix(-1,0,0,-1,73.6306,23.0436)">
                <rect x="20.235" y="7.033" width="6.514" height="4.011" style="fill:rgb(16,124,65);"/>
            </g>
            <g transform="matrix(1,0,0,1,33.8166,0.720506)">
                <path d="M11.479,7.442C11.479,6.999 11.116,6.64 10.669,6.64L3.586,6.64C3.139,6.64 2.776,6.999 2.776,7.442L2.776,14.488C2.776,14.931 3.139,15.29 3.586,15.29L10.669,15.29C11.116,15.29 11.479,14.931 11.479,14.488L11.479,7.442Z" style="fill:rgb(16,121,63);"/>
                <clipPath id="_clip1">
                    <path d="M11.479,7.442C11.479,6.999 11.116,6.64 10.669,6.64L3.586,6.64C3.139,6.64 2.776,6.999 2.776,7.442L2.776,14.488C2.776,14.931 3.139,15.29 3.586,15.29L10.669,15.29C11.116,15.29 11.479,14.931 11.479,14.488L11.479,7.442Z"/>
                </clipPath>
                <g clip-path="url(#_clip1)">
                    <g transform="matrix(6.20545,0,0,6.20545,4.9101,13.2849)">
                        <path d="M0.667,0L0.494,0L0.328,-0.27L0.162,0L0,0L0.237,-0.368L0.015,-0.714L0.182,-0.714L0.336,-0.457L0.487,-0.714L0.65,-0.714L0.426,-0.36L0.667,0Z" style="fill:white;fill-rule:nonzero;"/>
                    </g>
                </g>
            </g>
        </g>
    </g>
</svg>
